<?xml version="1.0" encoding="utf-8" standalone="no"?>
<!DOCTYPE svg PUBLIC "-//W3C//DTD SVG 1.1//EN"
  "http://www.w3.org/Graphics/SVG/1.1/DTD/svg11.dtd">
<!-- Created with matplotlib (http://matplotlib.org/) -->
<svg height="288pt" version="1.1" viewBox="0 0 432 288" width="432pt" xmlns="http://www.w3.org/2000/svg" xmlns:xlink="http://www.w3.org/1999/xlink">
 <defs>
  <style type="text/css">
*{stroke-linecap:butt;stroke-linejoin:round;stroke-miterlimit:100000;}
  </style>
 </defs>
 <g id="figure_1">
  <g id="patch_1">
   <path d="M 0 288 
L 432 288 
L 432 0 
L 0 0 
L 0 288 
z
" style="fill:none;"/>
  </g>
  <g id="axes_1">
   <g id="LineCollection_1">
    <path clip-path="url(#p4f5fb43183)" d="M 71.286285 144.195292 
L 131.95043 178.910199 
" style="fill:none;stroke:#eeeeee;"/>
    <path clip-path="url(#p4f5fb43183)" d="M 71.286285 144.195292 
L 131.115747 147.237588 
" style="fill:none;stroke:#eeeeee;"/>
    <path clip-path="url(#p4f5fb43183)" d="M 71.286285 144.195292 
L 92.086516 198.920781 
" style="fill:none;stroke:#eeeeee;"/>
    <path clip-path="url(#p4f5fb43183)" d="M 71.286285 144.195292 
L 64.549765 166.496276 
" style="fill:none;stroke:#eeeeee;"/>
    <path clip-path="url(#p4f5fb43183)" d="M 272.448232 223.827059 
L 321.956396 243.201107 
" style="fill:none;stroke:#eeeeee;"/>
    <path clip-path="url(#p4f5fb43183)" d="M 272.448232 223.827059 
L 134.336757 199.24517 
" style="fill:none;stroke:#eeeeee;"/>
    <path clip-path="url(#p4f5fb43183)" d="M 272.448232 223.827059 
L 261.004275 202.601379 
" style="fill:none;stroke:#eeeeee;"/>
    <path clip-path="url(#p4f5fb43183)" d="M 272.448232 223.827059 
L 316.191891 231.145474 
" style="fill:none;stroke:#eeeeee;"/>
    <path clip-path="url(#p4f5fb43183)" d="M 272.448232 223.827059 
L 306.916746 220.256337 
" style="fill:none;stroke:#eeeeee;"/>
    <path clip-path="url(#p4f5fb43183)" d="M 272.448232 223.827059 
L 347.409899 220.507828 
" style="fill:none;stroke:#eeeeee;"/>
    <path clip-path="url(#p4f5fb43183)" d="M 272.448232 223.827059 
L 334.295397 194.794254 
" style="fill:none;stroke:#eeeeee;"/>
    <path clip-path="url(#p4f5fb43183)" d="M 272.448232 223.827059 
L 356.090835 193.372635 
" style="fill:none;stroke:#eeeeee;"/>
    <path clip-path="url(#p4f5fb43183)" d="M 272.448232 223.827059 
L 260.211828 241.741371 
" style="fill:none;stroke:#eeeeee;"/>
    <path clip-path="url(#p4f5fb43183)" d="M 94.488834 181.899866 
L 77.316005 194.261736 
" style="fill:none;stroke:#eeeeee;"/>
    <path clip-path="url(#p4f5fb43183)" d="M 94.488834 181.899866 
L 134.336757 199.24517 
" style="fill:none;stroke:#eeeeee;"/>
    <path clip-path="url(#p4f5fb43183)" d="M 94.488834 181.899866 
L 124.971917 169.797759 
" style="fill:none;stroke:#eeeeee;"/>
    <path clip-path="url(#p4f5fb43183)" d="M 94.488834 181.899866 
L 88.51058 213.096673 
" style="fill:none;stroke:#eeeeee;"/>
    <path clip-path="url(#p4f5fb43183)" d="M 94.488834 181.899866 
L 100.25111 151.931542 
" style="fill:none;stroke:#eeeeee;"/>
    <path clip-path="url(#p4f5fb43183)" d="M 94.488834 181.899866 
L 116.944629 214.899103 
" style="fill:none;stroke:#eeeeee;"/>
    <path clip-path="url(#p4f5fb43183)" d="M 94.488834 181.899866 
L 159.979026 171.314471 
" style="fill:none;stroke:#eeeeee;"/>
    <path clip-path="url(#p4f5fb43183)" d="M 94.488834 181.899866 
L 92.086516 198.920781 
" style="fill:none;stroke:#eeeeee;"/>
    <path clip-path="url(#p4f5fb43183)" d="M 94.488834 181.899866 
L 131.115747 147.237588 
" style="fill:none;stroke:#eeeeee;"/>
    <path clip-path="url(#p4f5fb43183)" d="M 94.488834 181.899866 
L 61.714286 176.660616 
" style="fill:none;stroke:#eeeeee;"/>
    <path clip-path="url(#p4f5fb43183)" d="M 94.488834 181.899866 
L 164.289293 196.515028 
" style="fill:none;stroke:#eeeeee;"/>
    <path clip-path="url(#p4f5fb43183)" d="M 94.488834 181.899866 
L 110.936586 193.617704 
" style="fill:none;stroke:#eeeeee;"/>
    <path clip-path="url(#p4f5fb43183)" d="M 316.191891 231.145474 
L 315.038967 203.089807 
" style="fill:none;stroke:#eeeeee;"/>
    <path clip-path="url(#p4f5fb43183)" d="M 316.191891 231.145474 
L 347.409899 220.507828 
" style="fill:none;stroke:#eeeeee;"/>
    <path clip-path="url(#p4f5fb43183)" d="M 316.191891 231.145474 
L 337.47784 233.429635 
" style="fill:none;stroke:#eeeeee;"/>
    <path clip-path="url(#p4f5fb43183)" d="M 316.191891 231.145474 
L 308.784447 246.857143 
" style="fill:none;stroke:#eeeeee;"/>
    <path clip-path="url(#p4f5fb43183)" d="M 316.191891 231.145474 
L 281.353167 206.367091 
" style="fill:none;stroke:#eeeeee;"/>
    <path clip-path="url(#p4f5fb43183)" d="M 316.191891 231.145474 
L 308.848436 176.758107 
" style="fill:none;stroke:#eeeeee;"/>
    <path clip-path="url(#p4f5fb43183)" d="M 77.316005 194.261736 
L 100.25111 151.931542 
" style="fill:none;stroke:#eeeeee;"/>
    <path clip-path="url(#p4f5fb43183)" d="M 77.316005 194.261736 
L 149.198274 197.109226 
" style="fill:none;stroke:#eeeeee;"/>
    <path clip-path="url(#p4f5fb43183)" d="M 77.316005 194.261736 
L 159.979026 171.314471 
" style="fill:none;stroke:#eeeeee;"/>
    <path clip-path="url(#p4f5fb43183)" d="M 77.316005 194.261736 
L 92.086516 198.920781 
" style="fill:none;stroke:#eeeeee;"/>
    <path clip-path="url(#p4f5fb43183)" d="M 77.316005 194.261736 
L 61.714286 176.660616 
" style="fill:none;stroke:#eeeeee;"/>
    <path clip-path="url(#p4f5fb43183)" d="M 77.316005 194.261736 
L 164.289293 196.515028 
" style="fill:none;stroke:#eeeeee;"/>
    <path clip-path="url(#p4f5fb43183)" d="M 77.316005 194.261736 
L 88.51058 213.096673 
" style="fill:none;stroke:#eeeeee;"/>
    <path clip-path="url(#p4f5fb43183)" d="M 238.459534 65.481585 
L 282.064098 83.313765 
" style="fill:none;stroke:#eeeeee;"/>
    <path clip-path="url(#p4f5fb43183)" d="M 238.459534 65.481585 
L 178.434229 101.873191 
" style="fill:none;stroke:#eeeeee;"/>
    <path clip-path="url(#p4f5fb43183)" d="M 238.459534 65.481585 
L 258.40975 54.452097 
" style="fill:none;stroke:#eeeeee;"/>
    <path clip-path="url(#p4f5fb43183)" d="M 238.459534 65.481585 
L 274.317367 51.522366 
" style="fill:none;stroke:#eeeeee;"/>
    <path clip-path="url(#p4f5fb43183)" d="M 238.459534 65.481585 
L 208.207632 61.694733 
" style="fill:none;stroke:#eeeeee;"/>
    <path clip-path="url(#p4f5fb43183)" d="M 238.459534 65.481585 
L 292.729102 57.984098 
" style="fill:none;stroke:#eeeeee;"/>
    <path clip-path="url(#p4f5fb43183)" d="M 238.459534 65.481585 
L 268.604776 81.36073 
" style="fill:none;stroke:#eeeeee;"/>
    <path clip-path="url(#p4f5fb43183)" d="M 238.459534 65.481585 
L 194.583075 86.29863 
" style="fill:none;stroke:#eeeeee;"/>
    <path clip-path="url(#p4f5fb43183)" d="M 238.459534 65.481585 
L 233.813993 41.142857 
" style="fill:none;stroke:#eeeeee;"/>
    <path clip-path="url(#p4f5fb43183)" d="M 274.317367 51.522366 
L 282.064098 83.313765 
" style="fill:none;stroke:#eeeeee;"/>
    <path clip-path="url(#p4f5fb43183)" d="M 274.317367 51.522366 
L 258.40975 54.452097 
" style="fill:none;stroke:#eeeeee;"/>
    <path clip-path="url(#p4f5fb43183)" d="M 274.317367 51.522366 
L 244.31437 81.927875 
" style="fill:none;stroke:#eeeeee;"/>
    <path clip-path="url(#p4f5fb43183)" d="M 274.317367 51.522366 
L 221.747531 43.727113 
" style="fill:none;stroke:#eeeeee;"/>
    <path clip-path="url(#p4f5fb43183)" d="M 274.317367 51.522366 
L 207.624774 44.99365 
" style="fill:none;stroke:#eeeeee;"/>
    <path clip-path="url(#p4f5fb43183)" d="M 274.317367 51.522366 
L 253.154062 45.433581 
" style="fill:none;stroke:#eeeeee;"/>
    <path clip-path="url(#p4f5fb43183)" d="M 274.317367 51.522366 
L 268.604776 81.36073 
" style="fill:none;stroke:#eeeeee;"/>
    <path clip-path="url(#p4f5fb43183)" d="M 274.317367 51.522366 
L 233.813993 41.142857 
" style="fill:none;stroke:#eeeeee;"/>
    <path clip-path="url(#p4f5fb43183)" d="M 306.916746 220.256337 
L 261.004275 202.601379 
" style="fill:none;stroke:#eeeeee;"/>
    <path clip-path="url(#p4f5fb43183)" d="M 306.916746 220.256337 
L 315.038967 203.089807 
" style="fill:none;stroke:#eeeeee;"/>
    <path clip-path="url(#p4f5fb43183)" d="M 306.916746 220.256337 
L 347.409899 220.507828 
" style="fill:none;stroke:#eeeeee;"/>
    <path clip-path="url(#p4f5fb43183)" d="M 306.916746 220.256337 
L 356.090835 193.372635 
" style="fill:none;stroke:#eeeeee;"/>
    <path clip-path="url(#p4f5fb43183)" d="M 306.916746 220.256337 
L 308.848436 176.758107 
" style="fill:none;stroke:#eeeeee;"/>
    <path clip-path="url(#p4f5fb43183)" d="M 306.916746 220.256337 
L 308.784447 246.857143 
" style="fill:none;stroke:#eeeeee;"/>
    <path clip-path="url(#p4f5fb43183)" d="M 306.916746 220.256337 
L 281.353167 206.367091 
" style="fill:none;stroke:#eeeeee;"/>
    <path clip-path="url(#p4f5fb43183)" d="M 306.916746 220.256337 
L 260.211828 241.741371 
" style="fill:none;stroke:#eeeeee;"/>
    <path clip-path="url(#p4f5fb43183)" d="M 337.47784 233.429635 
L 330.266518 217.044112 
" style="fill:none;stroke:#eeeeee;"/>
    <path clip-path="url(#p4f5fb43183)" d="M 337.47784 233.429635 
L 321.956396 243.201107 
" style="fill:none;stroke:#eeeeee;"/>
    <path clip-path="url(#p4f5fb43183)" d="M 337.47784 233.429635 
L 261.004275 202.601379 
" style="fill:none;stroke:#eeeeee;"/>
    <path clip-path="url(#p4f5fb43183)" d="M 337.47784 233.429635 
L 315.038967 203.089807 
" style="fill:none;stroke:#eeeeee;"/>
    <path clip-path="url(#p4f5fb43183)" d="M 337.47784 233.429635 
L 308.784447 246.857143 
" style="fill:none;stroke:#eeeeee;"/>
    <path clip-path="url(#p4f5fb43183)" d="M 337.47784 233.429635 
L 281.353167 206.367091 
" style="fill:none;stroke:#eeeeee;"/>
    <path clip-path="url(#p4f5fb43183)" d="M 221.747531 43.727113 
L 244.31437 81.927875 
" style="fill:none;stroke:#eeeeee;"/>
    <path clip-path="url(#p4f5fb43183)" d="M 221.747531 43.727113 
L 207.624774 44.99365 
" style="fill:none;stroke:#eeeeee;"/>
    <path clip-path="url(#p4f5fb43183)" d="M 221.747531 43.727113 
L 268.604776 81.36073 
" style="fill:none;stroke:#eeeeee;"/>
    <path clip-path="url(#p4f5fb43183)" d="M 221.747531 43.727113 
L 258.40975 54.452097 
" style="fill:none;stroke:#eeeeee;"/>
    <path clip-path="url(#p4f5fb43183)" d="M 221.747531 43.727113 
L 168.670858 43.852284 
" style="fill:none;stroke:#eeeeee;"/>
    <path clip-path="url(#p4f5fb43183)" d="M 207.624774 44.99365 
L 258.40975 54.452097 
" style="fill:none;stroke:#eeeeee;"/>
    <path clip-path="url(#p4f5fb43183)" d="M 207.624774 44.99365 
L 244.31437 81.927875 
" style="fill:none;stroke:#eeeeee;"/>
    <path clip-path="url(#p4f5fb43183)" d="M 207.624774 44.99365 
L 268.604776 81.36073 
" style="fill:none;stroke:#eeeeee;"/>
    <path clip-path="url(#p4f5fb43183)" d="M 207.624774 44.99365 
L 208.207632 61.694733 
" style="fill:none;stroke:#eeeeee;"/>
    <path clip-path="url(#p4f5fb43183)" d="M 207.624774 44.99365 
L 233.813993 41.142857 
" style="fill:none;stroke:#eeeeee;"/>
    <path clip-path="url(#p4f5fb43183)" d="M 207.624774 44.99365 
L 168.670858 43.852284 
" style="fill:none;stroke:#eeeeee;"/>
    <path clip-path="url(#p4f5fb43183)" d="M 253.154062 45.433581 
L 282.064098 83.313765 
" style="fill:none;stroke:#eeeeee;"/>
    <path clip-path="url(#p4f5fb43183)" d="M 253.154062 45.433581 
L 178.434229 101.873191 
" style="fill:none;stroke:#eeeeee;"/>
    <path clip-path="url(#p4f5fb43183)" d="M 253.154062 45.433581 
L 208.207632 61.694733 
" style="fill:none;stroke:#eeeeee;"/>
    <path clip-path="url(#p4f5fb43183)" d="M 253.154062 45.433581 
L 268.604776 81.36073 
" style="fill:none;stroke:#eeeeee;"/>
    <path clip-path="url(#p4f5fb43183)" d="M 253.154062 45.433581 
L 292.729102 57.984098 
" style="fill:none;stroke:#eeeeee;"/>
    <path clip-path="url(#p4f5fb43183)" d="M 253.154062 45.433581 
L 233.813993 41.142857 
" style="fill:none;stroke:#eeeeee;"/>
    <path clip-path="url(#p4f5fb43183)" d="M 308.784447 246.857143 
L 330.266518 217.044112 
" style="fill:none;stroke:#eeeeee;"/>
    <path clip-path="url(#p4f5fb43183)" d="M 308.784447 246.857143 
L 347.409899 220.507828 
" style="fill:none;stroke:#eeeeee;"/>
    <path clip-path="url(#p4f5fb43183)" d="M 308.784447 246.857143 
L 321.956396 243.201107 
" style="fill:none;stroke:#eeeeee;"/>
    <path clip-path="url(#p4f5fb43183)" d="M 308.784447 246.857143 
L 308.848436 176.758107 
" style="fill:none;stroke:#eeeeee;"/>
    <path clip-path="url(#p4f5fb43183)" d="M 281.353167 206.367091 
L 330.266518 217.044112 
" style="fill:none;stroke:#eeeeee;"/>
    <path clip-path="url(#p4f5fb43183)" d="M 281.353167 206.367091 
L 321.956396 243.201107 
" style="fill:none;stroke:#eeeeee;"/>
    <path clip-path="url(#p4f5fb43183)" d="M 281.353167 206.367091 
L 261.004275 202.601379 
" style="fill:none;stroke:#eeeeee;"/>
    <path clip-path="url(#p4f5fb43183)" d="M 281.353167 206.367091 
L 315.038967 203.089807 
" style="fill:none;stroke:#eeeeee;"/>
    <path clip-path="url(#p4f5fb43183)" d="M 281.353167 206.367091 
L 164.289293 196.515028 
" style="fill:none;stroke:#eeeeee;"/>
    <path clip-path="url(#p4f5fb43183)" d="M 281.353167 206.367091 
L 281.647217 155.413102 
" style="fill:none;stroke:#eeeeee;"/>
    <path clip-path="url(#p4f5fb43183)" d="M 281.353167 206.367091 
L 308.848436 176.758107 
" style="fill:none;stroke:#eeeeee;"/>
    <path clip-path="url(#p4f5fb43183)" d="M 233.813993 41.142857 
L 208.207632 61.694733 
" style="fill:none;stroke:#eeeeee;"/>
    <path clip-path="url(#p4f5fb43183)" d="M 233.813993 41.142857 
L 194.583075 86.29863 
" style="fill:none;stroke:#eeeeee;"/>
    <path clip-path="url(#p4f5fb43183)" d="M 233.813993 41.142857 
L 244.31437 81.927875 
" style="fill:none;stroke:#eeeeee;"/>
    <path clip-path="url(#p4f5fb43183)" d="M 233.813993 41.142857 
L 268.604776 81.36073 
" style="fill:none;stroke:#eeeeee;"/>
    <path clip-path="url(#p4f5fb43183)" d="M 233.813993 41.142857 
L 258.40975 54.452097 
" style="fill:none;stroke:#eeeeee;"/>
    <path clip-path="url(#p4f5fb43183)" d="M 233.813993 41.142857 
L 168.670858 43.852284 
" style="fill:none;stroke:#eeeeee;"/>
    <path clip-path="url(#p4f5fb43183)" d="M 260.211828 241.741371 
L 330.266518 217.044112 
" style="fill:none;stroke:#eeeeee;"/>
    <path clip-path="url(#p4f5fb43183)" d="M 260.211828 241.741371 
L 261.004275 202.601379 
" style="fill:none;stroke:#eeeeee;"/>
    <path clip-path="url(#p4f5fb43183)" d="M 260.211828 241.741371 
L 321.956396 243.201107 
" style="fill:none;stroke:#eeeeee;"/>
    <path clip-path="url(#p4f5fb43183)" d="M 260.211828 241.741371 
L 315.038967 203.089807 
" style="fill:none;stroke:#eeeeee;"/>
    <path clip-path="url(#p4f5fb43183)" d="M 260.211828 241.741371 
L 152.456713 221.087108 
" style="fill:none;stroke:#eeeeee;"/>
    <path clip-path="url(#p4f5fb43183)" d="M 100.25111 151.931542 
L 131.95043 178.910199 
" style="fill:none;stroke:#eeeeee;"/>
    <path clip-path="url(#p4f5fb43183)" d="M 100.25111 151.931542 
L 102.361873 133.439571 
" style="fill:none;stroke:#eeeeee;"/>
    <path clip-path="url(#p4f5fb43183)" d="M 100.25111 151.931542 
L 178.434229 101.873191 
" style="fill:none;stroke:#eeeeee;"/>
    <path clip-path="url(#p4f5fb43183)" d="M 100.25111 151.931542 
L 159.979026 171.314471 
" style="fill:none;stroke:#eeeeee;"/>
    <path clip-path="url(#p4f5fb43183)" d="M 100.25111 151.931542 
L 64.549765 166.496276 
" style="fill:none;stroke:#eeeeee;"/>
    <path clip-path="url(#p4f5fb43183)" d="M 100.25111 151.931542 
L 124.971917 169.797759 
" style="fill:none;stroke:#eeeeee;"/>
    <path clip-path="url(#p4f5fb43183)" d="M 100.25111 151.931542 
L 61.714286 176.660616 
" style="fill:none;stroke:#eeeeee;"/>
    <path clip-path="url(#p4f5fb43183)" d="M 100.25111 151.931542 
L 110.936586 193.617704 
" style="fill:none;stroke:#eeeeee;"/>
    <path clip-path="url(#p4f5fb43183)" d="M 100.25111 151.931542 
L 131.115747 147.237588 
" style="fill:none;stroke:#eeeeee;"/>
    <path clip-path="url(#p4f5fb43183)" d="M 282.064098 83.313765 
L 281.647217 155.413102 
" style="fill:none;stroke:#eeeeee;"/>
    <path clip-path="url(#p4f5fb43183)" d="M 282.064098 83.313765 
L 208.207632 61.694733 
" style="fill:none;stroke:#eeeeee;"/>
    <path clip-path="url(#p4f5fb43183)" d="M 282.064098 83.313765 
L 194.583075 86.29863 
" style="fill:none;stroke:#eeeeee;"/>
    <path clip-path="url(#p4f5fb43183)" d="M 282.064098 83.313765 
L 292.729102 57.984098 
" style="fill:none;stroke:#eeeeee;"/>
    <path clip-path="url(#p4f5fb43183)" d="M 282.064098 83.313765 
L 268.604776 81.36073 
" style="fill:none;stroke:#eeeeee;"/>
    <path clip-path="url(#p4f5fb43183)" d="M 282.064098 83.313765 
L 258.40975 54.452097 
" style="fill:none;stroke:#eeeeee;"/>
    <path clip-path="url(#p4f5fb43183)" d="M 261.004275 202.601379 
L 330.266518 217.044112 
" style="fill:none;stroke:#eeeeee;"/>
    <path clip-path="url(#p4f5fb43183)" d="M 261.004275 202.601379 
L 281.647217 155.413102 
" style="fill:none;stroke:#eeeeee;"/>
    <path clip-path="url(#p4f5fb43183)" d="M 261.004275 202.601379 
L 149.198274 197.109226 
" style="fill:none;stroke:#eeeeee;"/>
    <path clip-path="url(#p4f5fb43183)" d="M 261.004275 202.601379 
L 315.038967 203.089807 
" style="fill:none;stroke:#eeeeee;"/>
    <path clip-path="url(#p4f5fb43183)" d="M 261.004275 202.601379 
L 131.95043 178.910199 
" style="fill:none;stroke:#eeeeee;"/>
    <path clip-path="url(#p4f5fb43183)" d="M 261.004275 202.601379 
L 334.295397 194.794254 
" style="fill:none;stroke:#eeeeee;"/>
    <path clip-path="url(#p4f5fb43183)" d="M 261.004275 202.601379 
L 347.409899 220.507828 
" style="fill:none;stroke:#eeeeee;"/>
    <path clip-path="url(#p4f5fb43183)" d="M 261.004275 202.601379 
L 308.848436 176.758107 
" style="fill:none;stroke:#eeeeee;"/>
    <path clip-path="url(#p4f5fb43183)" d="M 116.944629 214.899103 
L 131.95043 178.910199 
" style="fill:none;stroke:#eeeeee;"/>
    <path clip-path="url(#p4f5fb43183)" d="M 116.944629 214.899103 
L 149.198274 197.109226 
" style="fill:none;stroke:#eeeeee;"/>
    <path clip-path="url(#p4f5fb43183)" d="M 116.944629 214.899103 
L 159.979026 171.314471 
" style="fill:none;stroke:#eeeeee;"/>
    <path clip-path="url(#p4f5fb43183)" d="M 116.944629 214.899103 
L 92.086516 198.920781 
" style="fill:none;stroke:#eeeeee;"/>
    <path clip-path="url(#p4f5fb43183)" d="M 116.944629 214.899103 
L 134.336757 199.24517 
" style="fill:none;stroke:#eeeeee;"/>
    <path clip-path="url(#p4f5fb43183)" d="M 116.944629 214.899103 
L 124.971917 169.797759 
" style="fill:none;stroke:#eeeeee;"/>
    <path clip-path="url(#p4f5fb43183)" d="M 116.944629 214.899103 
L 110.936586 193.617704 
" style="fill:none;stroke:#eeeeee;"/>
    <path clip-path="url(#p4f5fb43183)" d="M 178.434229 101.873191 
L 131.115747 147.237588 
" style="fill:none;stroke:#eeeeee;"/>
    <path clip-path="url(#p4f5fb43183)" d="M 178.434229 101.873191 
L 194.583075 86.29863 
" style="fill:none;stroke:#eeeeee;"/>
    <path clip-path="url(#p4f5fb43183)" d="M 178.434229 101.873191 
L 208.207632 61.694733 
" style="fill:none;stroke:#eeeeee;"/>
    <path clip-path="url(#p4f5fb43183)" d="M 178.434229 101.873191 
L 244.31437 81.927875 
" style="fill:none;stroke:#eeeeee;"/>
    <path clip-path="url(#p4f5fb43183)" d="M 178.434229 101.873191 
L 159.979026 171.314471 
" style="fill:none;stroke:#eeeeee;"/>
    <path clip-path="url(#p4f5fb43183)" d="M 159.979026 171.314471 
L 281.647217 155.413102 
" style="fill:none;stroke:#eeeeee;"/>
    <path clip-path="url(#p4f5fb43183)" d="M 159.979026 171.314471 
L 149.198274 197.109226 
" style="fill:none;stroke:#eeeeee;"/>
    <path clip-path="url(#p4f5fb43183)" d="M 159.979026 171.314471 
L 134.336757 199.24517 
" style="fill:none;stroke:#eeeeee;"/>
    <path clip-path="url(#p4f5fb43183)" d="M 159.979026 171.314471 
L 124.971917 169.797759 
" style="fill:none;stroke:#eeeeee;"/>
    <path clip-path="url(#p4f5fb43183)" d="M 159.979026 171.314471 
L 152.456713 221.087108 
" style="fill:none;stroke:#eeeeee;"/>
    <path clip-path="url(#p4f5fb43183)" d="M 159.979026 171.314471 
L 164.289293 196.515028 
" style="fill:none;stroke:#eeeeee;"/>
    <path clip-path="url(#p4f5fb43183)" d="M 159.979026 171.314471 
L 110.936586 193.617704 
" style="fill:none;stroke:#eeeeee;"/>
    <path clip-path="url(#p4f5fb43183)" d="M 92.086516 198.920781 
L 131.95043 178.910199 
" style="fill:none;stroke:#eeeeee;"/>
    <path clip-path="url(#p4f5fb43183)" d="M 92.086516 198.920781 
L 149.198274 197.109226 
" style="fill:none;stroke:#eeeeee;"/>
    <path clip-path="url(#p4f5fb43183)" d="M 92.086516 198.920781 
L 134.336757 199.24517 
" style="fill:none;stroke:#eeeeee;"/>
    <path clip-path="url(#p4f5fb43183)" d="M 92.086516 198.920781 
L 124.971917 169.797759 
" style="fill:none;stroke:#eeeeee;"/>
    <path clip-path="url(#p4f5fb43183)" d="M 92.086516 198.920781 
L 61.714286 176.660616 
" style="fill:none;stroke:#eeeeee;"/>
    <path clip-path="url(#p4f5fb43183)" d="M 92.086516 198.920781 
L 152.456713 221.087108 
" style="fill:none;stroke:#eeeeee;"/>
    <path clip-path="url(#p4f5fb43183)" d="M 208.207632 61.694733 
L 194.583075 86.29863 
" style="fill:none;stroke:#eeeeee;"/>
    <path clip-path="url(#p4f5fb43183)" d="M 208.207632 61.694733 
L 244.31437 81.927875 
" style="fill:none;stroke:#eeeeee;"/>
    <path clip-path="url(#p4f5fb43183)" d="M 347.409899 220.507828 
L 330.266518 217.044112 
" style="fill:none;stroke:#eeeeee;"/>
    <path clip-path="url(#p4f5fb43183)" d="M 347.409899 220.507828 
L 321.956396 243.201107 
" style="fill:none;stroke:#eeeeee;"/>
    <path clip-path="url(#p4f5fb43183)" d="M 347.409899 220.507828 
L 356.090835 193.372635 
" style="fill:none;stroke:#eeeeee;"/>
    <path clip-path="url(#p4f5fb43183)" d="M 347.409899 220.507828 
L 334.295397 194.794254 
" style="fill:none;stroke:#eeeeee;"/>
    <path clip-path="url(#p4f5fb43183)" d="M 244.31437 81.927875 
L 281.647217 155.413102 
" style="fill:none;stroke:#eeeeee;"/>
    <path clip-path="url(#p4f5fb43183)" d="M 244.31437 81.927875 
L 292.729102 57.984098 
" style="fill:none;stroke:#eeeeee;"/>
    <path clip-path="url(#p4f5fb43183)" d="M 244.31437 81.927875 
L 268.604776 81.36073 
" style="fill:none;stroke:#eeeeee;"/>
    <path clip-path="url(#p4f5fb43183)" d="M 268.604776 81.36073 
L 258.40975 54.452097 
" style="fill:none;stroke:#eeeeee;"/>
    <path clip-path="url(#p4f5fb43183)" d="M 268.604776 81.36073 
L 308.848436 176.758107 
" style="fill:none;stroke:#eeeeee;"/>
    <path clip-path="url(#p4f5fb43183)" d="M 61.714286 176.660616 
L 131.95043 178.910199 
" style="fill:none;stroke:#eeeeee;"/>
    <path clip-path="url(#p4f5fb43183)" d="M 61.714286 176.660616 
L 102.361873 133.439571 
" style="fill:none;stroke:#eeeeee;"/>
    <path clip-path="url(#p4f5fb43183)" d="M 61.714286 176.660616 
L 64.549765 166.496276 
" style="fill:none;stroke:#eeeeee;"/>
    <path clip-path="url(#p4f5fb43183)" d="M 61.714286 176.660616 
L 124.971917 169.797759 
" style="fill:none;stroke:#eeeeee;"/>
    <path clip-path="url(#p4f5fb43183)" d="M 61.714286 176.660616 
L 88.51058 213.096673 
" style="fill:none;stroke:#eeeeee;"/>
    <path clip-path="url(#p4f5fb43183)" d="M 164.289293 196.515028 
L 131.95043 178.910199 
" style="fill:none;stroke:#eeeeee;"/>
    <path clip-path="url(#p4f5fb43183)" d="M 164.289293 196.515028 
L 131.115747 147.237588 
" style="fill:none;stroke:#eeeeee;"/>
    <path clip-path="url(#p4f5fb43183)" d="M 164.289293 196.515028 
L 124.971917 169.797759 
" style="fill:none;stroke:#eeeeee;"/>
    <path clip-path="url(#p4f5fb43183)" d="M 164.289293 196.515028 
L 110.936586 193.617704 
" style="fill:none;stroke:#eeeeee;"/>
    <path clip-path="url(#p4f5fb43183)" d="M 164.289293 196.515028 
L 88.51058 213.096673 
" style="fill:none;stroke:#eeeeee;"/>
    <path clip-path="url(#p4f5fb43183)" d="M 110.936586 193.617704 
L 131.95043 178.910199 
" style="fill:none;stroke:#eeeeee;"/>
    <path clip-path="url(#p4f5fb43183)" d="M 110.936586 193.617704 
L 149.198274 197.109226 
" style="fill:none;stroke:#eeeeee;"/>
    <path clip-path="url(#p4f5fb43183)" d="M 110.936586 193.617704 
L 64.549765 166.496276 
" style="fill:none;stroke:#eeeeee;"/>
    <path clip-path="url(#p4f5fb43183)" d="M 110.936586 193.617704 
L 124.971917 169.797759 
" style="fill:none;stroke:#eeeeee;"/>
    <path clip-path="url(#p4f5fb43183)" d="M 110.936586 193.617704 
L 152.456713 221.087108 
" style="fill:none;stroke:#eeeeee;"/>
    <path clip-path="url(#p4f5fb43183)" d="M 258.40975 54.452097 
L 292.729102 57.984098 
" style="fill:none;stroke:#eeeeee;"/>
    <path clip-path="url(#p4f5fb43183)" d="M 258.40975 54.452097 
L 194.583075 86.29863 
" style="fill:none;stroke:#eeeeee;"/>
    <path clip-path="url(#p4f5fb43183)" d="M 168.670858 43.852284 
L 194.583075 86.29863 
" style="fill:none;stroke:#eeeeee;"/>
    <path clip-path="url(#p4f5fb43183)" d="M 330.266518 217.044112 
L 321.956396 243.201107 
" style="fill:none;stroke:#eeeeee;"/>
    <path clip-path="url(#p4f5fb43183)" d="M 330.266518 217.044112 
L 315.038967 203.089807 
" style="fill:none;stroke:#eeeeee;"/>
    <path clip-path="url(#p4f5fb43183)" d="M 330.266518 217.044112 
L 356.090835 193.372635 
" style="fill:none;stroke:#eeeeee;"/>
    <path clip-path="url(#p4f5fb43183)" d="M 330.266518 217.044112 
L 334.295397 194.794254 
" style="fill:none;stroke:#eeeeee;"/>
    <path clip-path="url(#p4f5fb43183)" d="M 330.266518 217.044112 
L 308.848436 176.758107 
" style="fill:none;stroke:#eeeeee;"/>
    <path clip-path="url(#p4f5fb43183)" d="M 131.95043 178.910199 
L 149.198274 197.109226 
" style="fill:none;stroke:#eeeeee;"/>
    <path clip-path="url(#p4f5fb43183)" d="M 131.95043 178.910199 
L 131.115747 147.237588 
" style="fill:none;stroke:#eeeeee;"/>
    <path clip-path="url(#p4f5fb43183)" d="M 131.95043 178.910199 
L 64.549765 166.496276 
" style="fill:none;stroke:#eeeeee;"/>
    <path clip-path="url(#p4f5fb43183)" d="M 131.95043 178.910199 
L 124.971917 169.797759 
" style="fill:none;stroke:#eeeeee;"/>
    <path clip-path="url(#p4f5fb43183)" d="M 131.95043 178.910199 
L 152.456713 221.087108 
" style="fill:none;stroke:#eeeeee;"/>
    <path clip-path="url(#p4f5fb43183)" d="M 131.95043 178.910199 
L 102.361873 133.439571 
" style="fill:none;stroke:#eeeeee;"/>
    <path clip-path="url(#p4f5fb43183)" d="M 281.647217 155.413102 
L 334.295397 194.794254 
" style="fill:none;stroke:#eeeeee;"/>
    <path clip-path="url(#p4f5fb43183)" d="M 281.647217 155.413102 
L 356.090835 193.372635 
" style="fill:none;stroke:#eeeeee;"/>
    <path clip-path="url(#p4f5fb43183)" d="M 281.647217 155.413102 
L 308.848436 176.758107 
" style="fill:none;stroke:#eeeeee;"/>
    <path clip-path="url(#p4f5fb43183)" d="M 281.647217 155.413102 
L 315.038967 203.089807 
" style="fill:none;stroke:#eeeeee;"/>
    <path clip-path="url(#p4f5fb43183)" d="M 149.198274 197.109226 
L 131.115747 147.237588 
" style="fill:none;stroke:#eeeeee;"/>
    <path clip-path="url(#p4f5fb43183)" d="M 149.198274 197.109226 
L 124.971917 169.797759 
" style="fill:none;stroke:#eeeeee;"/>
    <path clip-path="url(#p4f5fb43183)" d="M 149.198274 197.109226 
L 88.51058 213.096673 
" style="fill:none;stroke:#eeeeee;"/>
    <path clip-path="url(#p4f5fb43183)" d="M 149.198274 197.109226 
L 152.456713 221.087108 
" style="fill:none;stroke:#eeeeee;"/>
    <path clip-path="url(#p4f5fb43183)" d="M 315.038967 203.089807 
L 334.295397 194.794254 
" style="fill:none;stroke:#eeeeee;"/>
    <path clip-path="url(#p4f5fb43183)" d="M 315.038967 203.089807 
L 356.090835 193.372635 
" style="fill:none;stroke:#eeeeee;"/>
    <path clip-path="url(#p4f5fb43183)" d="M 194.583075 86.29863 
L 102.361873 133.439571 
" style="fill:none;stroke:#eeeeee;"/>
    <path clip-path="url(#p4f5fb43183)" d="M 194.583075 86.29863 
L 292.729102 57.984098 
" style="fill:none;stroke:#eeeeee;"/>
    <path clip-path="url(#p4f5fb43183)" d="M 194.583075 86.29863 
L 124.971917 169.797759 
" style="fill:none;stroke:#eeeeee;"/>
    <path clip-path="url(#p4f5fb43183)" d="M 134.336757 199.24517 
L 102.361873 133.439571 
" style="fill:none;stroke:#eeeeee;"/>
    <path clip-path="url(#p4f5fb43183)" d="M 134.336757 199.24517 
L 64.549765 166.496276 
" style="fill:none;stroke:#eeeeee;"/>
    <path clip-path="url(#p4f5fb43183)" d="M 134.336757 199.24517 
L 124.971917 169.797759 
" style="fill:none;stroke:#eeeeee;"/>
    <path clip-path="url(#p4f5fb43183)" d="M 134.336757 199.24517 
L 88.51058 213.096673 
" style="fill:none;stroke:#eeeeee;"/>
    <path clip-path="url(#p4f5fb43183)" d="M 64.549765 166.496276 
L 102.361873 133.439571 
" style="fill:none;stroke:#eeeeee;"/>
    <path clip-path="url(#p4f5fb43183)" d="M 64.549765 166.496276 
L 88.51058 213.096673 
" style="fill:none;stroke:#eeeeee;"/>
    <path clip-path="url(#p4f5fb43183)" d="M 124.971917 169.797759 
L 152.456713 221.087108 
" style="fill:none;stroke:#eeeeee;"/>
    <path clip-path="url(#p4f5fb43183)" d="M 124.971917 169.797759 
L 88.51058 213.096673 
" style="fill:none;stroke:#eeeeee;"/>
    <path clip-path="url(#p4f5fb43183)" d="M 334.295397 194.794254 
L 321.956396 243.201107 
" style="fill:none;stroke:#eeeeee;"/>
    <path clip-path="url(#p4f5fb43183)" d="M 334.295397 194.794254 
L 356.090835 193.372635 
" style="fill:none;stroke:#eeeeee;"/>
    <path clip-path="url(#p4f5fb43183)" d="M 334.295397 194.794254 
L 308.848436 176.758107 
" style="fill:none;stroke:#eeeeee;"/>
    <path clip-path="url(#p4f5fb43183)" d="M 152.456713 221.087108 
L 88.51058 213.096673 
" style="fill:none;stroke:#eeeeee;"/>
   </g>
   <g id="PathCollection_1">
    <defs>
     <path d="M 0 8.660254 
C 2.296726 8.660254 4.499694 7.747755 6.123724 6.123724 
C 7.747755 4.499694 8.660254 2.296726 8.660254 0 
C 8.660254 -2.296726 7.747755 -4.499694 6.123724 -6.123724 
C 4.499694 -7.747755 2.296726 -8.660254 0 -8.660254 
C -2.296726 -8.660254 -4.499694 -7.747755 -6.123724 -6.123724 
C -7.747755 -4.499694 -8.660254 -2.296726 -8.660254 0 
C -8.660254 2.296726 -7.747755 4.499694 -6.123724 6.123724 
C -4.499694 7.747755 -2.296726 8.660254 0 8.660254 
z
" id="C0_0_fb87680246"/>
    </defs>
    <g clip-path="url(#p4f5fb43183)">
     <use style="fill:#add8e6;stroke:#000000;" x="71.2862849849" xlink:href="#C0_0_fb87680246" y="144.195292481"/>
    </g>
    <g clip-path="url(#p4f5fb43183)">
     <use style="fill:#ffc0cb;stroke:#000000;" x="272.448231704" xlink:href="#C0_0_fb87680246" y="223.827059252"/>
    </g>
    <g clip-path="url(#p4f5fb43183)">
     <use style="fill:#add8e6;stroke:#000000;" x="94.4888340479" xlink:href="#C0_0_fb87680246" y="181.899866364"/>
    </g>
    <g clip-path="url(#p4f5fb43183)">
     <use style="fill:#ffc0cb;stroke:#000000;" x="316.191890782" xlink:href="#C0_0_fb87680246" y="231.145474346"/>
    </g>
    <g clip-path="url(#p4f5fb43183)">
     <use style="fill:#add8e6;stroke:#000000;" x="77.3160049552" xlink:href="#C0_0_fb87680246" y="194.261735751"/>
    </g>
    <g clip-path="url(#p4f5fb43183)">
     <use style="fill:#e6e6fa;stroke:#000000;" x="238.459533882" xlink:href="#C0_0_fb87680246" y="65.4815845494"/>
    </g>
    <g clip-path="url(#p4f5fb43183)">
     <use style="fill:#e6e6fa;stroke:#000000;" x="274.317367189" xlink:href="#C0_0_fb87680246" y="51.5223659803"/>
    </g>
    <g clip-path="url(#p4f5fb43183)">
     <use style="fill:#ffc0cb;stroke:#000000;" x="306.916746431" xlink:href="#C0_0_fb87680246" y="220.256337164"/>
    </g>
    <g clip-path="url(#p4f5fb43183)">
     <use style="fill:#ffc0cb;stroke:#000000;" x="337.477840359" xlink:href="#C0_0_fb87680246" y="233.429634575"/>
    </g>
    <g clip-path="url(#p4f5fb43183)">
     <use style="fill:#e6e6fa;stroke:#000000;" x="221.747530943" xlink:href="#C0_0_fb87680246" y="43.7271133866"/>
    </g>
    <g clip-path="url(#p4f5fb43183)">
     <use style="fill:#e6e6fa;stroke:#000000;" x="207.62477442" xlink:href="#C0_0_fb87680246" y="44.993650306"/>
    </g>
    <g clip-path="url(#p4f5fb43183)">
     <use style="fill:#e6e6fa;stroke:#000000;" x="253.154062357" xlink:href="#C0_0_fb87680246" y="45.4335812856"/>
    </g>
    <g clip-path="url(#p4f5fb43183)">
     <use style="fill:#ffc0cb;stroke:#000000;" x="308.784447385" xlink:href="#C0_0_fb87680246" y="246.857142857"/>
    </g>
    <g clip-path="url(#p4f5fb43183)">
     <use style="fill:#ffc0cb;stroke:#000000;" x="281.353167397" xlink:href="#C0_0_fb87680246" y="206.367090814"/>
    </g>
    <g clip-path="url(#p4f5fb43183)">
     <use style="fill:#e6e6fa;stroke:#000000;" x="233.8139929" xlink:href="#C0_0_fb87680246" y="41.1428571429"/>
    </g>
    <g clip-path="url(#p4f5fb43183)">
     <use style="fill:#ffc0cb;stroke:#000000;" x="260.211828481" xlink:href="#C0_0_fb87680246" y="241.741371001"/>
    </g>
    <g clip-path="url(#p4f5fb43183)">
     <use style="fill:#add8e6;stroke:#000000;" x="100.251109591" xlink:href="#C0_0_fb87680246" y="151.931541652"/>
    </g>
    <g clip-path="url(#p4f5fb43183)">
     <use style="fill:#e6e6fa;stroke:#000000;" x="282.064098258" xlink:href="#C0_0_fb87680246" y="83.3137646571"/>
    </g>
    <g clip-path="url(#p4f5fb43183)">
     <use style="fill:#ffc0cb;stroke:#000000;" x="261.004274698" xlink:href="#C0_0_fb87680246" y="202.601379493"/>
    </g>
    <g clip-path="url(#p4f5fb43183)">
     <use style="fill:#add8e6;stroke:#000000;" x="116.944629216" xlink:href="#C0_0_fb87680246" y="214.899102852"/>
    </g>
    <g clip-path="url(#p4f5fb43183)">
     <use style="fill:#e6e6fa;stroke:#000000;" x="178.434229494" xlink:href="#C0_0_fb87680246" y="101.873190724"/>
    </g>
    <g clip-path="url(#p4f5fb43183)">
     <use style="fill:#add8e6;stroke:#000000;" x="159.979026329" xlink:href="#C0_0_fb87680246" y="171.314471217"/>
    </g>
    <g clip-path="url(#p4f5fb43183)">
     <use style="fill:#add8e6;stroke:#000000;" x="92.0865158687" xlink:href="#C0_0_fb87680246" y="198.920781211"/>
    </g>
    <g clip-path="url(#p4f5fb43183)">
     <use style="fill:#e6e6fa;stroke:#000000;" x="208.207632105" xlink:href="#C0_0_fb87680246" y="61.6947332641"/>
    </g>
    <g clip-path="url(#p4f5fb43183)">
     <use style="fill:#ffc0cb;stroke:#000000;" x="347.409899112" xlink:href="#C0_0_fb87680246" y="220.507827951"/>
    </g>
    <g clip-path="url(#p4f5fb43183)">
     <use style="fill:#e6e6fa;stroke:#000000;" x="244.314370146" xlink:href="#C0_0_fb87680246" y="81.9278745412"/>
    </g>
    <g clip-path="url(#p4f5fb43183)">
     <use style="fill:#e6e6fa;stroke:#000000;" x="268.604776472" xlink:href="#C0_0_fb87680246" y="81.3607300199"/>
    </g>
    <g clip-path="url(#p4f5fb43183)">
     <use style="fill:#add8e6;stroke:#000000;" x="61.7142857143" xlink:href="#C0_0_fb87680246" y="176.660616354"/>
    </g>
    <g clip-path="url(#p4f5fb43183)">
     <use style="fill:#add8e6;stroke:#000000;" x="164.28929254" xlink:href="#C0_0_fb87680246" y="196.515028046"/>
    </g>
    <g clip-path="url(#p4f5fb43183)">
     <use style="fill:#add8e6;stroke:#000000;" x="110.936586074" xlink:href="#C0_0_fb87680246" y="193.617704055"/>
    </g>
    <g clip-path="url(#p4f5fb43183)">
     <use style="fill:#e6e6fa;stroke:#000000;" x="258.409749546" xlink:href="#C0_0_fb87680246" y="54.4520965604"/>
    </g>
    <g clip-path="url(#p4f5fb43183)">
     <use style="fill:#e6e6fa;stroke:#000000;" x="168.670857508" xlink:href="#C0_0_fb87680246" y="43.8522839161"/>
    </g>
    <g clip-path="url(#p4f5fb43183)">
     <use style="fill:#ffc0cb;stroke:#000000;" x="330.266517576" xlink:href="#C0_0_fb87680246" y="217.044112322"/>
    </g>
    <g clip-path="url(#p4f5fb43183)">
     <use style="fill:#add8e6;stroke:#000000;" x="131.950429863" xlink:href="#C0_0_fb87680246" y="178.910198954"/>
    </g>
    <g clip-path="url(#p4f5fb43183)">
     <use style="fill:#ffc0cb;stroke:#000000;" x="281.647217275" xlink:href="#C0_0_fb87680246" y="155.413101718"/>
    </g>
    <g clip-path="url(#p4f5fb43183)">
     <use style="fill:#add8e6;stroke:#000000;" x="149.198273713" xlink:href="#C0_0_fb87680246" y="197.109226399"/>
    </g>
    <g clip-path="url(#p4f5fb43183)">
     <use style="fill:#add8e6;stroke:#000000;" x="131.115746644" xlink:href="#C0_0_fb87680246" y="147.237587526"/>
    </g>
    <g clip-path="url(#p4f5fb43183)">
     <use style="fill:#ffc0cb;stroke:#000000;" x="315.038967062" xlink:href="#C0_0_fb87680246" y="203.089807142"/>
    </g>
    <g clip-path="url(#p4f5fb43183)">
     <use style="fill:#e6e6fa;stroke:#000000;" x="194.583074802" xlink:href="#C0_0_fb87680246" y="86.2986303164"/>
    </g>
    <g clip-path="url(#p4f5fb43183)">
     <use style="fill:#e6e6fa;stroke:#000000;" x="292.72910194" xlink:href="#C0_0_fb87680246" y="57.9840979115"/>
    </g>
    <g clip-path="url(#p4f5fb43183)">
     <use style="fill:#add8e6;stroke:#000000;" x="134.336756564" xlink:href="#C0_0_fb87680246" y="199.245170118"/>
    </g>
    <g clip-path="url(#p4f5fb43183)">
     <use style="fill:#add8e6;stroke:#000000;" x="64.5497652468" xlink:href="#C0_0_fb87680246" y="166.496276455"/>
    </g>
    <g clip-path="url(#p4f5fb43183)">
     <use style="fill:#add8e6;stroke:#000000;" x="124.971917479" xlink:href="#C0_0_fb87680246" y="169.797758936"/>
    </g>
    <g clip-path="url(#p4f5fb43183)">
     <use style="fill:#ffc0cb;stroke:#000000;" x="334.29539711" xlink:href="#C0_0_fb87680246" y="194.794253528"/>
    </g>
    <g clip-path="url(#p4f5fb43183)">
     <use style="fill:#ffc0cb;stroke:#000000;" x="356.090834581" xlink:href="#C0_0_fb87680246" y="193.372634729"/>
    </g>
    <g clip-path="url(#p4f5fb43183)">
     <use style="fill:#add8e6;stroke:#000000;" x="152.45671254" xlink:href="#C0_0_fb87680246" y="221.087108442"/>
    </g>
    <g clip-path="url(#p4f5fb43183)">
     <use style="fill:#add8e6;stroke:#000000;" x="88.5105800073" xlink:href="#C0_0_fb87680246" y="213.096672831"/>
    </g>
    <g clip-path="url(#p4f5fb43183)">
     <use style="fill:#ffc0cb;stroke:#000000;" x="308.84843585" xlink:href="#C0_0_fb87680246" y="176.758106897"/>
    </g>
    <g clip-path="url(#p4f5fb43183)">
     <use style="fill:#ffc0cb;stroke:#000000;" x="321.956396214" xlink:href="#C0_0_fb87680246" y="243.201106603"/>
    </g>
    <g clip-path="url(#p4f5fb43183)">
     <use style="fill:#add8e6;stroke:#000000;" x="102.361873207" xlink:href="#C0_0_fb87680246" y="133.439571042"/>
    </g>
   </g>
  </g>
 </g>
 <defs>
  <clipPath id="p4f5fb43183">
   <rect height="288.0" width="432.0" x="0.0" y="0.0"/>
  </clipPath>
 </defs>
</svg>
