<?xml version="1.0" encoding="utf-8" standalone="no"?>
<!DOCTYPE svg PUBLIC "-//W3C//DTD SVG 1.1//EN"
  "http://www.w3.org/Graphics/SVG/1.1/DTD/svg11.dtd">
<!-- Created with matplotlib (http://matplotlib.org/) -->
<svg height="288pt" version="1.1" viewBox="0 0 432 288" width="432pt" xmlns="http://www.w3.org/2000/svg" xmlns:xlink="http://www.w3.org/1999/xlink">
 <defs>
  <style type="text/css">
*{stroke-linecap:butt;stroke-linejoin:round;stroke-miterlimit:100000;}
  </style>
 </defs>
 <g id="figure_1">
  <g id="patch_1">
   <path d="M 0 288 
L 432 288 
L 432 0 
L 0 0 
L 0 288 
z
" style="fill:none;"/>
  </g>
  <g id="axes_1">
   <g id="LineCollection_1">
    <path clip-path="url(#p7a03a37231)" d="M 203.86091 164.517805 
L 203.86091 164.517805 
" style="fill:none;stroke:#eeeeee;"/>
    <path clip-path="url(#p7a03a37231)" d="M 203.86091 164.517805 
L 203.86091 164.517805 
" style="fill:none;stroke:#eeeeee;"/>
    <path clip-path="url(#p7a03a37231)" d="M 203.86091 164.517805 
L 171.045329 189.881921 
" style="fill:none;stroke:#eeeeee;"/>
    <path clip-path="url(#p7a03a37231)" d="M 203.86091 164.517805 
L 171.045329 189.881921 
" style="fill:none;stroke:#eeeeee;"/>
    <path clip-path="url(#p7a03a37231)" d="M 203.86091 164.517805 
L 214.376036 154.826329 
" style="fill:none;stroke:#eeeeee;"/>
    <path clip-path="url(#p7a03a37231)" d="M 203.86091 164.517805 
L 214.376036 154.826329 
" style="fill:none;stroke:#eeeeee;"/>
    <path clip-path="url(#p7a03a37231)" d="M 203.86091 164.517805 
L 214.376036 154.826329 
" style="fill:none;stroke:#eeeeee;"/>
    <path clip-path="url(#p7a03a37231)" d="M 203.86091 164.517805 
L 214.376036 154.826329 
" style="fill:none;stroke:#eeeeee;"/>
    <path clip-path="url(#p7a03a37231)" d="M 203.86091 164.517805 
L 214.376036 154.826329 
" style="fill:none;stroke:#eeeeee;"/>
    <path clip-path="url(#p7a03a37231)" d="M 203.86091 164.517805 
L 214.376036 154.826329 
" style="fill:none;stroke:#eeeeee;"/>
    <path clip-path="url(#p7a03a37231)" d="M 203.86091 164.517805 
L 233.222955 148.099068 
" style="fill:none;stroke:#eeeeee;"/>
    <path clip-path="url(#p7a03a37231)" d="M 203.86091 164.517805 
L 233.222955 148.099068 
" style="fill:none;stroke:#eeeeee;"/>
    <path clip-path="url(#p7a03a37231)" d="M 203.86091 164.517805 
L 233.222955 148.099068 
" style="fill:none;stroke:#eeeeee;"/>
    <path clip-path="url(#p7a03a37231)" d="M 203.86091 164.517805 
L 233.222955 148.099068 
" style="fill:none;stroke:#eeeeee;"/>
    <path clip-path="url(#p7a03a37231)" d="M 203.86091 164.517805 
L 233.222955 148.099068 
" style="fill:none;stroke:#eeeeee;"/>
    <path clip-path="url(#p7a03a37231)" d="M 203.86091 164.517805 
L 233.222955 148.099068 
" style="fill:none;stroke:#eeeeee;"/>
    <path clip-path="url(#p7a03a37231)" d="M 203.86091 164.517805 
L 230.292036 192.667962 
" style="fill:none;stroke:#eeeeee;"/>
    <path clip-path="url(#p7a03a37231)" d="M 203.86091 164.517805 
L 139.938017 215.504884 
" style="fill:none;stroke:#eeeeee;"/>
    <path clip-path="url(#p7a03a37231)" d="M 203.86091 164.517805 
L 141.152197 137.321497 
" style="fill:none;stroke:#eeeeee;"/>
    <path clip-path="url(#p7a03a37231)" d="M 171.045329 189.881921 
L 203.86091 164.517805 
" style="fill:none;stroke:#eeeeee;"/>
    <path clip-path="url(#p7a03a37231)" d="M 171.045329 189.881921 
L 203.86091 164.517805 
" style="fill:none;stroke:#eeeeee;"/>
    <path clip-path="url(#p7a03a37231)" d="M 171.045329 189.881921 
L 203.86091 164.517805 
" style="fill:none;stroke:#eeeeee;"/>
    <path clip-path="url(#p7a03a37231)" d="M 171.045329 189.881921 
L 171.045329 189.881921 
" style="fill:none;stroke:#eeeeee;"/>
    <path clip-path="url(#p7a03a37231)" d="M 171.045329 189.881921 
L 214.376036 154.826329 
" style="fill:none;stroke:#eeeeee;"/>
    <path clip-path="url(#p7a03a37231)" d="M 171.045329 189.881921 
L 214.376036 154.826329 
" style="fill:none;stroke:#eeeeee;"/>
    <path clip-path="url(#p7a03a37231)" d="M 171.045329 189.881921 
L 214.376036 154.826329 
" style="fill:none;stroke:#eeeeee;"/>
    <path clip-path="url(#p7a03a37231)" d="M 171.045329 189.881921 
L 233.222955 148.099068 
" style="fill:none;stroke:#eeeeee;"/>
    <path clip-path="url(#p7a03a37231)" d="M 214.376036 154.826329 
L 203.86091 164.517805 
" style="fill:none;stroke:#eeeeee;"/>
    <path clip-path="url(#p7a03a37231)" d="M 214.376036 154.826329 
L 214.376036 154.826329 
" style="fill:none;stroke:#eeeeee;"/>
    <path clip-path="url(#p7a03a37231)" d="M 214.376036 154.826329 
L 233.222955 148.099068 
" style="fill:none;stroke:#eeeeee;"/>
    <path clip-path="url(#p7a03a37231)" d="M 214.376036 154.826329 
L 233.222955 148.099068 
" style="fill:none;stroke:#eeeeee;"/>
    <path clip-path="url(#p7a03a37231)" d="M 214.376036 154.826329 
L 233.222955 148.099068 
" style="fill:none;stroke:#eeeeee;"/>
    <path clip-path="url(#p7a03a37231)" d="M 214.376036 154.826329 
L 115.616225 182.226384 
" style="fill:none;stroke:#eeeeee;"/>
    <path clip-path="url(#p7a03a37231)" d="M 214.376036 154.826329 
L 230.292036 192.667962 
" style="fill:none;stroke:#eeeeee;"/>
    <path clip-path="url(#p7a03a37231)" d="M 214.376036 154.826329 
L 285.049926 113.673975 
" style="fill:none;stroke:#eeeeee;"/>
    <path clip-path="url(#p7a03a37231)" d="M 115.616225 182.226384 
L 233.222955 148.099068 
" style="fill:none;stroke:#eeeeee;"/>
    <path clip-path="url(#p7a03a37231)" d="M 230.292036 192.667962 
L 203.86091 164.517805 
" style="fill:none;stroke:#eeeeee;"/>
    <path clip-path="url(#p7a03a37231)" d="M 230.292036 192.667962 
L 203.86091 164.517805 
" style="fill:none;stroke:#eeeeee;"/>
    <path clip-path="url(#p7a03a37231)" d="M 230.292036 192.667962 
L 203.86091 164.517805 
" style="fill:none;stroke:#eeeeee;"/>
    <path clip-path="url(#p7a03a37231)" d="M 230.292036 192.667962 
L 171.045329 189.881921 
" style="fill:none;stroke:#eeeeee;"/>
    <path clip-path="url(#p7a03a37231)" d="M 230.292036 192.667962 
L 233.222955 148.099068 
" style="fill:none;stroke:#eeeeee;"/>
    <path clip-path="url(#p7a03a37231)" d="M 230.292036 192.667962 
L 233.222955 148.099068 
" style="fill:none;stroke:#eeeeee;"/>
    <path clip-path="url(#p7a03a37231)" d="M 230.292036 192.667962 
L 233.222955 148.099068 
" style="fill:none;stroke:#eeeeee;"/>
    <path clip-path="url(#p7a03a37231)" d="M 230.292036 192.667962 
L 233.222955 148.099068 
" style="fill:none;stroke:#eeeeee;"/>
    <path clip-path="url(#p7a03a37231)" d="M 230.292036 192.667962 
L 201.853082 242.879713 
" style="fill:none;stroke:#eeeeee;"/>
    <path clip-path="url(#p7a03a37231)" d="M 362.855855 173.513805 
L 203.86091 164.517805 
" style="fill:none;stroke:#eeeeee;"/>
    <path clip-path="url(#p7a03a37231)" d="M 362.855855 173.513805 
L 233.222955 148.099068 
" style="fill:none;stroke:#eeeeee;"/>
    <path clip-path="url(#p7a03a37231)" d="M 362.855855 173.513805 
L 233.222955 148.099068 
" style="fill:none;stroke:#eeeeee;"/>
    <path clip-path="url(#p7a03a37231)" d="M 62.737802 141.906901 
L 203.86091 164.517805 
" style="fill:none;stroke:#eeeeee;"/>
    <path clip-path="url(#p7a03a37231)" d="M 62.737802 141.906901 
L 203.86091 164.517805 
" style="fill:none;stroke:#eeeeee;"/>
    <path clip-path="url(#p7a03a37231)" d="M 62.737802 141.906901 
L 171.045329 189.881921 
" style="fill:none;stroke:#eeeeee;"/>
    <path clip-path="url(#p7a03a37231)" d="M 62.737802 141.906901 
L 171.045329 189.881921 
" style="fill:none;stroke:#eeeeee;"/>
    <path clip-path="url(#p7a03a37231)" d="M 62.737802 141.906901 
L 115.616225 182.226384 
" style="fill:none;stroke:#eeeeee;"/>
    <path clip-path="url(#p7a03a37231)" d="M 342.996015 87.810428 
L 285.049926 113.673975 
" style="fill:none;stroke:#eeeeee;"/>
    <path clip-path="url(#p7a03a37231)" d="M 342.996015 87.810428 
L 233.222955 148.099068 
" style="fill:none;stroke:#eeeeee;"/>
    <path clip-path="url(#p7a03a37231)" d="M 139.938017 215.504884 
L 203.86091 164.517805 
" style="fill:none;stroke:#eeeeee;"/>
    <path clip-path="url(#p7a03a37231)" d="M 310.929789 63.450012 
L 233.222955 148.099068 
" style="fill:none;stroke:#eeeeee;"/>
    <path clip-path="url(#p7a03a37231)" d="M 305.027788 178.934051 
L 214.376036 154.826329 
" style="fill:none;stroke:#eeeeee;"/>
    <path clip-path="url(#p7a03a37231)" d="M 108.227294 68.927824 
L 214.376036 154.826329 
" style="fill:none;stroke:#eeeeee;"/>
    <path clip-path="url(#p7a03a37231)" d="M 108.227294 68.927824 
L 145.494281 53.339088 
" style="fill:none;stroke:#eeeeee;"/>
    <path clip-path="url(#p7a03a37231)" d="M 119.979404 225.21534 
L 233.222955 148.099068 
" style="fill:none;stroke:#eeeeee;"/>
    <path clip-path="url(#p7a03a37231)" d="M 368.034543 158.226639 
L 203.86091 164.517805 
" style="fill:none;stroke:#eeeeee;"/>
    <path clip-path="url(#p7a03a37231)" d="M 327.758352 74.196071 
L 342.996015 87.810428 
" style="fill:none;stroke:#eeeeee;"/>
    <path clip-path="url(#p7a03a37231)" d="M 166.321532 46.773988 
L 145.494281 53.339088 
" style="fill:none;stroke:#eeeeee;"/>
    <path clip-path="url(#p7a03a37231)" d="M 92.422569 81.317253 
L 203.86091 164.517805 
" style="fill:none;stroke:#eeeeee;"/>
    <path clip-path="url(#p7a03a37231)" d="M 92.422569 81.317253 
L 233.222955 148.099068 
" style="fill:none;stroke:#eeeeee;"/>
    <path clip-path="url(#p7a03a37231)" d="M 341.586715 202.801905 
L 203.86091 164.517805 
" style="fill:none;stroke:#eeeeee;"/>
    <path clip-path="url(#p7a03a37231)" d="M 341.586715 202.801905 
L 233.222955 148.099068 
" style="fill:none;stroke:#eeeeee;"/>
    <path clip-path="url(#p7a03a37231)" d="M 201.853082 242.879713 
L 214.376036 154.826329 
" style="fill:none;stroke:#eeeeee;"/>
    <path clip-path="url(#p7a03a37231)" d="M 201.853082 242.879713 
L 233.222955 148.099068 
" style="fill:none;stroke:#eeeeee;"/>
    <path clip-path="url(#p7a03a37231)" d="M 141.152197 137.321497 
L 203.86091 164.517805 
" style="fill:none;stroke:#eeeeee;"/>
    <path clip-path="url(#p7a03a37231)" d="M 271.577303 49.156333 
L 214.376036 154.826329 
" style="fill:none;stroke:#eeeeee;"/>
    <path clip-path="url(#p7a03a37231)" d="M 96.31413 210.44126 
L 139.938017 215.504884 
" style="fill:none;stroke:#eeeeee;"/>
    <path clip-path="url(#p7a03a37231)" d="M 61.714286 158.837845 
L 233.222955 148.099068 
" style="fill:none;stroke:#eeeeee;"/>
    <path clip-path="url(#p7a03a37231)" d="M 61.714286 158.837845 
L 115.616225 182.226384 
" style="fill:none;stroke:#eeeeee;"/>
    <path clip-path="url(#p7a03a37231)" d="M 362.079849 113.226663 
L 214.376036 154.826329 
" style="fill:none;stroke:#eeeeee;"/>
    <path clip-path="url(#p7a03a37231)" d="M 251.139641 43.861441 
L 233.222955 148.099068 
" style="fill:none;stroke:#eeeeee;"/>
    <path clip-path="url(#p7a03a37231)" d="M 69.444939 109.658147 
L 203.86091 164.517805 
" style="fill:none;stroke:#eeeeee;"/>
    <path clip-path="url(#p7a03a37231)" d="M 354.029097 99.355816 
L 305.027788 178.934051 
" style="fill:none;stroke:#eeeeee;"/>
    <path clip-path="url(#p7a03a37231)" d="M 208.140258 41.142857 
L 233.222955 148.099068 
" style="fill:none;stroke:#eeeeee;"/>
    <path clip-path="url(#p7a03a37231)" d="M 354.595838 188.75248 
L 203.86091 164.517805 
" style="fill:none;stroke:#eeeeee;"/>
    <path clip-path="url(#p7a03a37231)" d="M 307.802624 225.546271 
L 203.86091 164.517805 
" style="fill:none;stroke:#eeeeee;"/>
    <path clip-path="url(#p7a03a37231)" d="M 307.802624 225.546271 
L 214.376036 154.826329 
" style="fill:none;stroke:#eeeeee;"/>
    <path clip-path="url(#p7a03a37231)" d="M 307.802624 225.546271 
L 233.222955 148.099068 
" style="fill:none;stroke:#eeeeee;"/>
    <path clip-path="url(#p7a03a37231)" d="M 130.761343 57.590583 
L 233.222955 148.099068 
" style="fill:none;stroke:#eeeeee;"/>
    <path clip-path="url(#p7a03a37231)" d="M 174.642432 243.585223 
L 214.376036 154.826329 
" style="fill:none;stroke:#eeeeee;"/>
    <path clip-path="url(#p7a03a37231)" d="M 174.642432 243.585223 
L 115.616225 182.226384 
" style="fill:none;stroke:#eeeeee;"/>
    <path clip-path="url(#p7a03a37231)" d="M 292.010354 55.037777 
L 342.996015 87.810428 
" style="fill:none;stroke:#eeeeee;"/>
    <path clip-path="url(#p7a03a37231)" d="M 369.005591 142.916782 
L 342.996015 87.810428 
" style="fill:none;stroke:#eeeeee;"/>
    <path clip-path="url(#p7a03a37231)" d="M 369.005591 142.916782 
L 233.222955 148.099068 
" style="fill:none;stroke:#eeeeee;"/>
    <path clip-path="url(#p7a03a37231)" d="M 326.696495 215.786372 
L 233.222955 148.099068 
" style="fill:none;stroke:#eeeeee;"/>
    <path clip-path="url(#p7a03a37231)" d="M 78.290588 94.502551 
L 203.86091 164.517805 
" style="fill:none;stroke:#eeeeee;"/>
    <path clip-path="url(#p7a03a37231)" d="M 80.156928 193.373788 
L 214.376036 154.826329 
" style="fill:none;stroke:#eeeeee;"/>
    <path clip-path="url(#p7a03a37231)" d="M 221.238946 246.857143 
L 305.027788 178.934051 
" style="fill:none;stroke:#eeeeee;"/>
    <path clip-path="url(#p7a03a37231)" d="M 288.527111 234.593195 
L 171.045329 189.881921 
" style="fill:none;stroke:#eeeeee;"/>
    <path clip-path="url(#p7a03a37231)" d="M 189.959261 45.376087 
L 130.761343 57.590583 
" style="fill:none;stroke:#eeeeee;"/>
    <path clip-path="url(#p7a03a37231)" d="M 366.807815 127.889086 
L 214.376036 154.826329 
" style="fill:none;stroke:#eeeeee;"/>
    <path clip-path="url(#p7a03a37231)" d="M 62.806401 125.500331 
L 214.376036 154.826329 
" style="fill:none;stroke:#eeeeee;"/>
    <path clip-path="url(#p7a03a37231)" d="M 267.249607 241.387872 
L 203.86091 164.517805 
" style="fill:none;stroke:#eeeeee;"/>
    <path clip-path="url(#p7a03a37231)" d="M 148.824666 237.386276 
L 139.938017 215.504884 
" style="fill:none;stroke:#eeeeee;"/>
    <path clip-path="url(#p7a03a37231)" d="M 244.415839 245.10024 
L 171.045329 189.881921 
" style="fill:none;stroke:#eeeeee;"/>
    <path clip-path="url(#p7a03a37231)" d="M 68.051503 176.082113 
L 115.616225 182.226384 
" style="fill:none;stroke:#eeeeee;"/>
    <path clip-path="url(#p7a03a37231)" d="M 229.595816 41.794318 
L 189.959261 45.376087 
" style="fill:none;stroke:#eeeeee;"/>
   </g>
   <g id="PathCollection_1">
    <path clip-path="url(#p7a03a37231)" d="M 203.86091 174.642034 
C 206.545887 174.642034 209.121255 173.575281 211.01982 171.676716 
C 212.918386 169.778151 213.985138 167.202782 213.985138 164.517805 
C 213.985138 161.832829 212.918386 159.25746 211.01982 157.358895 
C 209.121255 155.46033 206.545887 154.393577 203.86091 154.393577 
C 201.175933 154.393577 198.600565 155.46033 196.701999 157.358895 
C 194.803434 159.25746 193.736681 161.832829 193.736681 164.517805 
C 193.736681 167.202782 194.803434 169.778151 196.701999 171.676716 
C 198.600565 173.575281 201.175933 174.642034 203.86091 174.642034 
z
" style="fill:#add8e6;stroke:#000000;"/>
    <path clip-path="url(#p7a03a37231)" d="M 171.045329 196.206476 
C 172.72262 196.206476 174.33144 195.540081 175.517465 194.354057 
C 176.703489 193.168032 177.369884 191.559212 177.369884 189.881921 
C 177.369884 188.204629 176.703489 186.595809 175.517465 185.409785 
C 174.33144 184.22376 172.72262 183.557365 171.045329 183.557365 
C 169.368037 183.557365 167.759217 184.22376 166.573193 185.409785 
C 165.387168 186.595809 164.720773 188.204629 164.720773 189.881921 
C 164.720773 191.559212 165.387168 193.168032 166.573193 194.354057 
C 167.759217 195.540081 169.368037 196.206476 171.045329 196.206476 
z
" style="fill:#add8e6;stroke:#000000;"/>
    <path clip-path="url(#p7a03a37231)" d="M 214.376036 163.192929 
C 216.594884 163.192929 218.723153 162.311371 220.292115 160.742409 
C 221.861078 159.173446 222.742636 157.045177 222.742636 154.826329 
C 222.742636 152.607481 221.861078 150.479212 220.292115 148.910249 
C 218.723153 147.341286 216.594884 146.459729 214.376036 146.459729 
C 212.157187 146.459729 210.028918 147.341286 208.459956 148.910249 
C 206.890993 150.479212 206.009435 152.607481 206.009435 154.826329 
C 206.009435 157.045177 206.890993 159.173446 208.459956 160.742409 
C 210.028918 162.311371 212.157187 163.192929 214.376036 163.192929 
z
" style="fill:#add8e6;stroke:#000000;"/>
    <path clip-path="url(#p7a03a37231)" d="M 233.222955 156.759322 
C 235.519681 156.759322 237.722649 155.846823 239.34668 154.222793 
C 240.97071 152.598762 241.883209 150.395794 241.883209 148.099068 
C 241.883209 145.802342 240.97071 143.599375 239.34668 141.975344 
C 237.722649 140.351313 235.519681 139.438814 233.222955 139.438814 
C 230.926229 139.438814 228.723262 140.351313 227.099231 141.975344 
C 225.4752 143.599375 224.562701 145.802342 224.562701 148.099068 
C 224.562701 150.395794 225.4752 152.598762 227.099231 154.222793 
C 228.723262 155.846823 230.926229 156.759322 233.222955 156.759322 
z
" style="fill:#add8e6;stroke:#000000;"/>
    <path clip-path="url(#p7a03a37231)" d="M 115.616225 186.099368 
C 116.643352 186.099368 117.628549 185.691286 118.354838 184.964997 
C 119.081126 184.238708 119.489208 183.253511 119.489208 182.226384 
C 119.489208 181.199257 119.081126 180.21406 118.354838 179.487771 
C 117.628549 178.761483 116.643352 178.353401 115.616225 178.353401 
C 114.589098 178.353401 113.603901 178.761483 112.877612 179.487771 
C 112.151324 180.21406 111.743242 181.199257 111.743242 182.226384 
C 111.743242 183.253511 112.151324 184.238708 112.877612 184.964997 
C 113.603901 185.691286 114.589098 186.099368 115.616225 186.099368 
z
" style="fill:#add8e6;stroke:#000000;"/>
    <path clip-path="url(#p7a03a37231)" d="M 230.292036 197.912006 
C 231.682773 197.912006 233.016736 197.35946 234.000136 196.376061 
C 234.983535 195.392661 235.536081 194.058698 235.536081 192.667962 
C 235.536081 191.277225 234.983535 189.943262 234.000136 188.959862 
C 233.016736 187.976463 231.682773 187.423917 230.292036 187.423917 
C 228.9013 187.423917 227.567337 187.976463 226.583937 188.959862 
C 225.600538 189.943262 225.047992 191.277225 225.047992 192.667962 
C 225.047992 194.058698 225.600538 195.392661 226.583937 196.376061 
C 227.567337 197.35946 228.9013 197.912006 230.292036 197.912006 
z
" style="fill:#add8e6;stroke:#000000;"/>
    <path clip-path="url(#p7a03a37231)" d="M 362.855855 176.252418 
C 363.582143 176.252418 364.278783 175.96386 364.792346 175.450297 
C 365.30591 174.936733 365.594467 174.240094 365.594467 173.513805 
C 365.594467 172.787516 365.30591 172.090877 364.792346 171.577313 
C 364.278783 171.06375 363.582143 170.775192 362.855855 170.775192 
C 362.129566 170.775192 361.432927 171.06375 360.919363 171.577313 
C 360.405799 172.090877 360.117242 172.787516 360.117242 173.513805 
C 360.117242 174.240094 360.405799 174.936733 360.919363 175.450297 
C 361.432927 175.96386 362.129566 176.252418 362.855855 176.252418 
z
" style="fill:#add8e6;stroke:#000000;"/>
    <path clip-path="url(#p7a03a37231)" d="M 62.737802 145.442435 
C 63.675437 145.442435 64.574795 145.069909 65.237802 144.406901 
C 65.90081 143.743893 66.273336 142.844535 66.273336 141.906901 
C 66.273336 140.969266 65.90081 140.069909 65.237802 139.406901 
C 64.574795 138.743893 63.675437 138.371367 62.737802 138.371367 
C 61.800168 138.371367 60.90081 138.743893 60.237802 139.406901 
C 59.574795 140.069909 59.202269 140.969266 59.202269 141.906901 
C 59.202269 142.844535 59.574795 143.743893 60.237802 144.406901 
C 60.90081 145.069909 61.800168 145.442435 62.737802 145.442435 
z
" style="fill:#add8e6;stroke:#000000;"/>
    <path clip-path="url(#p7a03a37231)" d="M 342.996015 91.345962 
C 343.933649 91.345962 344.833007 90.973436 345.496015 90.310428 
C 346.159022 89.64742 346.531548 88.748063 346.531548 87.810428 
C 346.531548 86.872794 346.159022 85.973436 345.496015 85.310428 
C 344.833007 84.64742 343.933649 84.274894 342.996015 84.274894 
C 342.05838 84.274894 341.159022 84.64742 340.496015 85.310428 
C 339.833007 85.973436 339.460481 86.872794 339.460481 87.810428 
C 339.460481 88.748063 339.833007 89.64742 340.496015 90.310428 
C 341.159022 90.973436 342.05838 91.345962 342.996015 91.345962 
z
" style="fill:#add8e6;stroke:#000000;"/>
    <path clip-path="url(#p7a03a37231)" d="M 139.938017 218.667161 
C 140.776662 218.667161 141.581072 218.333964 142.174084 217.740952 
C 142.767097 217.14794 143.100294 216.34353 143.100294 215.504884 
C 143.100294 214.666238 142.767097 213.861828 142.174084 213.268816 
C 141.581072 212.675804 140.776662 212.342606 139.938017 212.342606 
C 139.099371 212.342606 138.294961 212.675804 137.701949 213.268816 
C 137.108936 213.861828 136.775739 214.666238 136.775739 215.504884 
C 136.775739 216.34353 137.108936 217.14794 137.701949 217.740952 
C 138.294961 218.333964 139.099371 218.667161 139.938017 218.667161 
z
" style="fill:#add8e6;stroke:#000000;"/>
    <path clip-path="url(#p7a03a37231)" d="M 310.929789 65.031151 
C 311.349111 65.031151 311.751316 64.864552 312.047823 64.568046 
C 312.344329 64.27154 312.510927 63.869335 312.510927 63.450012 
C 312.510927 63.030689 312.344329 62.628484 312.047823 62.331978 
C 311.751316 62.035472 311.349111 61.868874 310.929789 61.868874 
C 310.510466 61.868874 310.108261 62.035472 309.811755 62.331978 
C 309.515248 62.628484 309.34865 63.030689 309.34865 63.450012 
C 309.34865 63.869335 309.515248 64.27154 309.811755 64.568046 
C 310.108261 64.864552 310.510466 65.031151 310.929789 65.031151 
z
" style="fill:#add8e6;stroke:#000000;"/>
    <path clip-path="url(#p7a03a37231)" d="M 305.027788 181.672664 
C 305.754077 181.672664 306.450716 181.384107 306.96428 180.870543 
C 307.477844 180.356979 307.766401 179.66034 307.766401 178.934051 
C 307.766401 178.207763 307.477844 177.511123 306.96428 176.99756 
C 306.450716 176.483996 305.754077 176.195438 305.027788 176.195438 
C 304.3015 176.195438 303.60486 176.483996 303.091297 176.99756 
C 302.577733 177.511123 302.289176 178.207763 302.289176 178.934051 
C 302.289176 179.66034 302.577733 180.356979 303.091297 180.870543 
C 303.60486 181.384107 304.3015 181.672664 305.027788 181.672664 
z
" style="fill:#add8e6;stroke:#000000;"/>
    <path clip-path="url(#p7a03a37231)" d="M 108.227294 71.163892 
C 108.820306 71.163892 109.38911 70.928286 109.808433 70.508963 
C 110.227756 70.08964 110.463362 69.520836 110.463362 68.927824 
C 110.463362 68.334812 110.227756 67.766008 109.808433 67.346685 
C 109.38911 66.927363 108.820306 66.691756 108.227294 66.691756 
C 107.634282 66.691756 107.065478 66.927363 106.646155 67.346685 
C 106.226832 67.766008 105.991226 68.334812 105.991226 68.927824 
C 105.991226 69.520836 106.226832 70.08964 106.646155 70.508963 
C 107.065478 70.928286 107.634282 71.163892 108.227294 71.163892 
z
" style="fill:#add8e6;stroke:#000000;"/>
    <path clip-path="url(#p7a03a37231)" d="M 119.979404 226.796479 
C 120.398727 226.796479 120.800932 226.62988 121.097438 226.333374 
C 121.393944 226.036868 121.560543 225.634663 121.560543 225.21534 
C 121.560543 224.796017 121.393944 224.393812 121.097438 224.097306 
C 120.800932 223.8008 120.398727 223.634201 119.979404 223.634201 
C 119.560081 223.634201 119.157876 223.8008 118.86137 224.097306 
C 118.564864 224.393812 118.398265 224.796017 118.398265 225.21534 
C 118.398265 225.634663 118.564864 226.036868 118.86137 226.333374 
C 119.157876 226.62988 119.560081 226.796479 119.979404 226.796479 
z
" style="fill:#add8e6;stroke:#000000;"/>
    <path clip-path="url(#p7a03a37231)" d="M 368.034543 159.807778 
C 368.453866 159.807778 368.856071 159.641179 369.152577 159.344673 
C 369.449083 159.048167 369.615682 158.645962 369.615682 158.226639 
C 369.615682 157.807316 369.449083 157.405111 369.152577 157.108605 
C 368.856071 156.812099 368.453866 156.6455 368.034543 156.6455 
C 367.61522 156.6455 367.213015 156.812099 366.916509 157.108605 
C 366.620003 157.405111 366.453404 157.807316 366.453404 158.226639 
C 366.453404 158.645962 366.620003 159.048167 366.916509 159.344673 
C 367.213015 159.641179 367.61522 159.807778 368.034543 159.807778 
z
" style="fill:#add8e6;stroke:#000000;"/>
    <path clip-path="url(#p7a03a37231)" d="M 145.494281 55.575156 
C 146.087293 55.575156 146.656097 55.339549 147.07542 54.920227 
C 147.494743 54.500904 147.730349 53.9321 147.730349 53.339088 
C 147.730349 52.746076 147.494743 52.177272 147.07542 51.757949 
C 146.656097 51.338626 146.087293 51.10302 145.494281 51.10302 
C 144.901269 51.10302 144.332465 51.338626 143.913142 51.757949 
C 143.49382 52.177272 143.258213 52.746076 143.258213 53.339088 
C 143.258213 53.9321 143.49382 54.500904 143.913142 54.920227 
C 144.332465 55.339549 144.901269 55.575156 145.494281 55.575156 
z
" style="fill:#add8e6;stroke:#000000;"/>
    <path clip-path="url(#p7a03a37231)" d="M 327.758352 75.77721 
C 328.177675 75.77721 328.57988 75.610611 328.876386 75.314105 
C 329.172892 75.017599 329.339491 74.615394 329.339491 74.196071 
C 329.339491 73.776748 329.172892 73.374543 328.876386 73.078037 
C 328.57988 72.781531 328.177675 72.614932 327.758352 72.614932 
C 327.339029 72.614932 326.936824 72.781531 326.640318 73.078037 
C 326.343812 73.374543 326.177213 73.776748 326.177213 74.196071 
C 326.177213 74.615394 326.343812 75.017599 326.640318 75.314105 
C 326.936824 75.610611 327.339029 75.77721 327.758352 75.77721 
z
" style="fill:#add8e6;stroke:#000000;"/>
    <path clip-path="url(#p7a03a37231)" d="M 166.321532 48.355127 
C 166.740855 48.355127 167.14306 48.188528 167.439566 47.892022 
C 167.736072 47.595516 167.902671 47.193311 167.902671 46.773988 
C 167.902671 46.354665 167.736072 45.95246 167.439566 45.655954 
C 167.14306 45.359448 166.740855 45.192849 166.321532 45.192849 
C 165.902209 45.192849 165.500004 45.359448 165.203498 45.655954 
C 164.906992 45.95246 164.740393 46.354665 164.740393 46.773988 
C 164.740393 47.193311 164.906992 47.595516 165.203498 47.892022 
C 165.500004 48.188528 165.902209 48.355127 166.321532 48.355127 
z
" style="fill:#add8e6;stroke:#000000;"/>
    <path clip-path="url(#p7a03a37231)" d="M 92.422569 83.553321 
C 93.015581 83.553321 93.584385 83.317715 94.003708 82.898392 
C 94.423031 82.479069 94.658637 81.910266 94.658637 81.317253 
C 94.658637 80.724241 94.423031 80.155437 94.003708 79.736115 
C 93.584385 79.316792 93.015581 79.081185 92.422569 79.081185 
C 91.829557 79.081185 91.260753 79.316792 90.84143 79.736115 
C 90.422107 80.155437 90.186501 80.724241 90.186501 81.317253 
C 90.186501 81.910266 90.422107 82.479069 90.84143 82.898392 
C 91.260753 83.317715 91.829557 83.553321 92.422569 83.553321 
z
" style="fill:#add8e6;stroke:#000000;"/>
    <path clip-path="url(#p7a03a37231)" d="M 341.586715 205.037973 
C 342.179727 205.037973 342.748531 204.802367 343.167854 204.383044 
C 343.587177 203.963721 343.822783 203.394917 343.822783 202.801905 
C 343.822783 202.208893 343.587177 201.640089 343.167854 201.220766 
C 342.748531 200.801443 342.179727 200.565837 341.586715 200.565837 
C 340.993703 200.565837 340.424899 200.801443 340.005576 201.220766 
C 339.586253 201.640089 339.350647 202.208893 339.350647 202.801905 
C 339.350647 203.394917 339.586253 203.963721 340.005576 204.383044 
C 340.424899 204.802367 340.993703 205.037973 341.586715 205.037973 
z
" style="fill:#add8e6;stroke:#000000;"/>
    <path clip-path="url(#p7a03a37231)" d="M 201.853082 245.618326 
C 202.579371 245.618326 203.27601 245.329769 203.789574 244.816205 
C 204.303137 244.302641 204.591695 243.606002 204.591695 242.879713 
C 204.591695 242.153425 204.303137 241.456785 203.789574 240.943222 
C 203.27601 240.429658 202.579371 240.141101 201.853082 240.141101 
C 201.126793 240.141101 200.430154 240.429658 199.91659 240.943222 
C 199.403027 241.456785 199.114469 242.153425 199.114469 242.879713 
C 199.114469 243.606002 199.403027 244.302641 199.91659 244.816205 
C 200.430154 245.329769 201.126793 245.618326 201.853082 245.618326 
z
" style="fill:#add8e6;stroke:#000000;"/>
    <path clip-path="url(#p7a03a37231)" d="M 141.152197 139.557565 
C 141.745209 139.557565 142.314013 139.321958 142.733335 138.902635 
C 143.152658 138.483313 143.388265 137.914509 143.388265 137.321497 
C 143.388265 136.728485 143.152658 136.159681 142.733335 135.740358 
C 142.314013 135.321035 141.745209 135.085429 141.152197 135.085429 
C 140.559184 135.085429 139.990381 135.321035 139.571058 135.740358 
C 139.151735 136.159681 138.916129 136.728485 138.916129 137.321497 
C 138.916129 137.914509 139.151735 138.483313 139.571058 138.902635 
C 139.990381 139.321958 140.559184 139.557565 141.152197 139.557565 
z
" style="fill:#add8e6;stroke:#000000;"/>
    <path clip-path="url(#p7a03a37231)" d="M 271.577303 50.737472 
C 271.996626 50.737472 272.398831 50.570873 272.695337 50.274367 
C 272.991843 49.977861 273.158442 49.575656 273.158442 49.156333 
C 273.158442 48.73701 272.991843 48.334805 272.695337 48.038299 
C 272.398831 47.741793 271.996626 47.575194 271.577303 47.575194 
C 271.15798 47.575194 270.755775 47.741793 270.459269 48.038299 
C 270.162763 48.334805 269.996164 48.73701 269.996164 49.156333 
C 269.996164 49.575656 270.162763 49.977861 270.459269 50.274367 
C 270.755775 50.570873 271.15798 50.737472 271.577303 50.737472 
z
" style="fill:#add8e6;stroke:#000000;"/>
    <path clip-path="url(#p7a03a37231)" d="M 96.31413 212.022399 
C 96.733453 212.022399 97.135658 211.8558 97.432164 211.559294 
C 97.728671 211.262788 97.895269 210.860583 97.895269 210.44126 
C 97.895269 210.021937 97.728671 209.619732 97.432164 209.323226 
C 97.135658 209.02672 96.733453 208.860122 96.31413 208.860122 
C 95.894808 208.860122 95.492603 209.02672 95.196096 209.323226 
C 94.89959 209.619732 94.732992 210.021937 94.732992 210.44126 
C 94.732992 210.860583 94.89959 211.262788 95.196096 211.559294 
C 95.492603 211.8558 95.894808 212.022399 96.31413 212.022399 
z
" style="fill:#add8e6;stroke:#000000;"/>
    <path clip-path="url(#p7a03a37231)" d="M 61.714286 161.073913 
C 62.307298 161.073913 62.876102 160.838307 63.295425 160.418984 
C 63.714747 159.999661 63.950354 159.430857 63.950354 158.837845 
C 63.950354 158.244833 63.714747 157.676029 63.295425 157.256706 
C 62.876102 156.837383 62.307298 156.601777 61.714286 156.601777 
C 61.121274 156.601777 60.55247 156.837383 60.133147 157.256706 
C 59.713824 157.676029 59.478218 158.244833 59.478218 158.837845 
C 59.478218 159.430857 59.713824 159.999661 60.133147 160.418984 
C 60.55247 160.838307 61.121274 161.073913 61.714286 161.073913 
z
" style="fill:#add8e6;stroke:#000000;"/>
    <path clip-path="url(#p7a03a37231)" d="M 362.079849 114.807802 
C 362.499172 114.807802 362.901377 114.641203 363.197883 114.344697 
C 363.494389 114.048191 363.660988 113.645986 363.660988 113.226663 
C 363.660988 112.80734 363.494389 112.405135 363.197883 112.108629 
C 362.901377 111.812123 362.499172 111.645524 362.079849 111.645524 
C 361.660526 111.645524 361.258321 111.812123 360.961815 112.108629 
C 360.665309 112.405135 360.49871 112.80734 360.49871 113.226663 
C 360.49871 113.645986 360.665309 114.048191 360.961815 114.344697 
C 361.258321 114.641203 361.660526 114.807802 362.079849 114.807802 
z
" style="fill:#add8e6;stroke:#000000;"/>
    <path clip-path="url(#p7a03a37231)" d="M 251.139641 45.44258 
C 251.558964 45.44258 251.961169 45.275981 252.257675 44.979475 
C 252.554181 44.682969 252.72078 44.280764 252.72078 43.861441 
C 252.72078 43.442118 252.554181 43.039913 252.257675 42.743407 
C 251.961169 42.446901 251.558964 42.280302 251.139641 42.280302 
C 250.720318 42.280302 250.318113 42.446901 250.021607 42.743407 
C 249.725101 43.039913 249.558502 43.442118 249.558502 43.861441 
C 249.558502 44.280764 249.725101 44.682969 250.021607 44.979475 
C 250.318113 45.275981 250.720318 45.44258 251.139641 45.44258 
z
" style="fill:#add8e6;stroke:#000000;"/>
    <path clip-path="url(#p7a03a37231)" d="M 69.444939 111.239285 
C 69.864262 111.239285 70.266467 111.072687 70.562973 110.776181 
C 70.859479 110.479675 71.026078 110.07747 71.026078 109.658147 
C 71.026078 109.238824 70.859479 108.836619 70.562973 108.540113 
C 70.266467 108.243607 69.864262 108.077008 69.444939 108.077008 
C 69.025616 108.077008 68.623411 108.243607 68.326905 108.540113 
C 68.030399 108.836619 67.8638 109.238824 67.8638 109.658147 
C 67.8638 110.07747 68.030399 110.479675 68.326905 110.776181 
C 68.623411 111.072687 69.025616 111.239285 69.444939 111.239285 
z
" style="fill:#add8e6;stroke:#000000;"/>
    <path clip-path="url(#p7a03a37231)" d="M 354.029097 100.936955 
C 354.44842 100.936955 354.850625 100.770356 355.147131 100.47385 
C 355.443637 100.177344 355.610236 99.775139 355.610236 99.355816 
C 355.610236 98.936493 355.443637 98.534288 355.147131 98.237782 
C 354.850625 97.941276 354.44842 97.774677 354.029097 97.774677 
C 353.609774 97.774677 353.207569 97.941276 352.911063 98.237782 
C 352.614557 98.534288 352.447958 98.936493 352.447958 99.355816 
C 352.447958 99.775139 352.614557 100.177344 352.911063 100.47385 
C 353.207569 100.770356 353.609774 100.936955 354.029097 100.936955 
z
" style="fill:#add8e6;stroke:#000000;"/>
    <path clip-path="url(#p7a03a37231)" d="M 208.140258 42.723996 
C 208.559581 42.723996 208.961786 42.557397 209.258292 42.260891 
C 209.554798 41.964385 209.721397 41.56218 209.721397 41.142857 
C 209.721397 40.723534 209.554798 40.321329 209.258292 40.024823 
C 208.961786 39.728317 208.559581 39.561718 208.140258 39.561718 
C 207.720935 39.561718 207.31873 39.728317 207.022224 40.024823 
C 206.725718 40.321329 206.559119 40.723534 206.559119 41.142857 
C 206.559119 41.56218 206.725718 41.964385 207.022224 42.260891 
C 207.31873 42.557397 207.720935 42.723996 208.140258 42.723996 
z
" style="fill:#add8e6;stroke:#000000;"/>
    <path clip-path="url(#p7a03a37231)" d="M 354.595838 190.333618 
C 355.015161 190.333618 355.417366 190.16702 355.713872 189.870514 
C 356.010378 189.574008 356.176977 189.171803 356.176977 188.75248 
C 356.176977 188.333157 356.010378 187.930952 355.713872 187.634446 
C 355.417366 187.33794 355.015161 187.171341 354.595838 187.171341 
C 354.176515 187.171341 353.77431 187.33794 353.477804 187.634446 
C 353.181298 187.930952 353.014699 188.333157 353.014699 188.75248 
C 353.014699 189.171803 353.181298 189.574008 353.477804 189.870514 
C 353.77431 190.16702 354.176515 190.333618 354.595838 190.333618 
z
" style="fill:#add8e6;stroke:#000000;"/>
    <path clip-path="url(#p7a03a37231)" d="M 307.802624 228.284884 
C 308.528912 228.284884 309.225552 227.996327 309.739115 227.482763 
C 310.252679 226.969199 310.541236 226.27256 310.541236 225.546271 
C 310.541236 224.819983 310.252679 224.123343 309.739115 223.60978 
C 309.225552 223.096216 308.528912 222.807659 307.802624 222.807659 
C 307.076335 222.807659 306.379696 223.096216 305.866132 223.60978 
C 305.352568 224.123343 305.064011 224.819983 305.064011 225.546271 
C 305.064011 226.27256 305.352568 226.969199 305.866132 227.482763 
C 306.379696 227.996327 307.076335 228.284884 307.802624 228.284884 
z
" style="fill:#add8e6;stroke:#000000;"/>
    <path clip-path="url(#p7a03a37231)" d="M 130.761343 59.826651 
C 131.354355 59.826651 131.923159 59.591045 132.342482 59.171722 
C 132.761805 58.752399 132.997411 58.183595 132.997411 57.590583 
C 132.997411 56.997571 132.761805 56.428767 132.342482 56.009444 
C 131.923159 55.590121 131.354355 55.354515 130.761343 55.354515 
C 130.168331 55.354515 129.599527 55.590121 129.180204 56.009444 
C 128.760881 56.428767 128.525275 56.997571 128.525275 57.590583 
C 128.525275 58.183595 128.760881 58.752399 129.180204 59.171722 
C 129.599527 59.591045 130.168331 59.826651 130.761343 59.826651 
z
" style="fill:#add8e6;stroke:#000000;"/>
    <path clip-path="url(#p7a03a37231)" d="M 174.642432 245.821291 
C 175.235445 245.821291 175.804248 245.585685 176.223571 245.166362 
C 176.642894 244.747039 176.8785 244.178235 176.8785 243.585223 
C 176.8785 242.992211 176.642894 242.423407 176.223571 242.004084 
C 175.804248 241.584762 175.235445 241.349155 174.642432 241.349155 
C 174.04942 241.349155 173.480617 241.584762 173.061294 242.004084 
C 172.641971 242.423407 172.406364 242.992211 172.406364 243.585223 
C 172.406364 244.178235 172.641971 244.747039 173.061294 245.166362 
C 173.480617 245.585685 174.04942 245.821291 174.642432 245.821291 
z
" style="fill:#add8e6;stroke:#000000;"/>
    <path clip-path="url(#p7a03a37231)" d="M 292.010354 56.618916 
C 292.429677 56.618916 292.831882 56.452317 293.128388 56.155811 
C 293.424894 55.859305 293.591493 55.4571 293.591493 55.037777 
C 293.591493 54.618454 293.424894 54.216249 293.128388 53.919743 
C 292.831882 53.623237 292.429677 53.456638 292.010354 53.456638 
C 291.591031 53.456638 291.188826 53.623237 290.89232 53.919743 
C 290.595814 54.216249 290.429215 54.618454 290.429215 55.037777 
C 290.429215 55.4571 290.595814 55.859305 290.89232 56.155811 
C 291.188826 56.452317 291.591031 56.618916 292.010354 56.618916 
z
" style="fill:#add8e6;stroke:#000000;"/>
    <path clip-path="url(#p7a03a37231)" d="M 369.005591 145.15285 
C 369.598603 145.15285 370.167407 144.917244 370.58673 144.497921 
C 371.006053 144.078598 371.241659 143.509795 371.241659 142.916782 
C 371.241659 142.32377 371.006053 141.754966 370.58673 141.335644 
C 370.167407 140.916321 369.598603 140.680714 369.005591 140.680714 
C 368.412579 140.680714 367.843775 140.916321 367.424452 141.335644 
C 367.005129 141.754966 366.769523 142.32377 366.769523 142.916782 
C 366.769523 143.509795 367.005129 144.078598 367.424452 144.497921 
C 367.843775 144.917244 368.412579 145.15285 369.005591 145.15285 
z
" style="fill:#add8e6;stroke:#000000;"/>
    <path clip-path="url(#p7a03a37231)" d="M 326.696495 217.367511 
C 327.115818 217.367511 327.518023 217.200913 327.814529 216.904406 
C 328.111035 216.6079 328.277634 216.205695 328.277634 215.786372 
C 328.277634 215.36705 328.111035 214.964845 327.814529 214.668339 
C 327.518023 214.371832 327.115818 214.205234 326.696495 214.205234 
C 326.277172 214.205234 325.874967 214.371832 325.578461 214.668339 
C 325.281955 214.964845 325.115356 215.36705 325.115356 215.786372 
C 325.115356 216.205695 325.281955 216.6079 325.578461 216.904406 
C 325.874967 217.200913 326.277172 217.367511 326.696495 217.367511 
z
" style="fill:#add8e6;stroke:#000000;"/>
    <path clip-path="url(#p7a03a37231)" d="M 78.290588 96.08369 
C 78.709911 96.08369 79.112116 95.917092 79.408622 95.620585 
C 79.705128 95.324079 79.871726 94.921874 79.871726 94.502551 
C 79.871726 94.083229 79.705128 93.681024 79.408622 93.384518 
C 79.112116 93.088011 78.709911 92.921413 78.290588 92.921413 
C 77.871265 92.921413 77.46906 93.088011 77.172554 93.384518 
C 76.876048 93.681024 76.709449 94.083229 76.709449 94.502551 
C 76.709449 94.921874 76.876048 95.324079 77.172554 95.620585 
C 77.46906 95.917092 77.871265 96.08369 78.290588 96.08369 
z
" style="fill:#add8e6;stroke:#000000;"/>
    <path clip-path="url(#p7a03a37231)" d="M 80.156928 194.954927 
C 80.576251 194.954927 80.978456 194.788328 81.274962 194.491822 
C 81.571468 194.195316 81.738067 193.793111 81.738067 193.373788 
C 81.738067 192.954465 81.571468 192.55226 81.274962 192.255754 
C 80.978456 191.959248 80.576251 191.792649 80.156928 191.792649 
C 79.737605 191.792649 79.3354 191.959248 79.038894 192.255754 
C 78.742388 192.55226 78.575789 192.954465 78.575789 193.373788 
C 78.575789 193.793111 78.742388 194.195316 79.038894 194.491822 
C 79.3354 194.788328 79.737605 194.954927 80.156928 194.954927 
z
" style="fill:#add8e6;stroke:#000000;"/>
    <path clip-path="url(#p7a03a37231)" d="M 221.238946 248.438282 
C 221.658269 248.438282 222.060474 248.271683 222.35698 247.975177 
C 222.653486 247.678671 222.820085 247.276466 222.820085 246.857143 
C 222.820085 246.43782 222.653486 246.035615 222.35698 245.739109 
C 222.060474 245.442603 221.658269 245.276004 221.238946 245.276004 
C 220.819623 245.276004 220.417418 245.442603 220.120912 245.739109 
C 219.824406 246.035615 219.657807 246.43782 219.657807 246.857143 
C 219.657807 247.276466 219.824406 247.678671 220.120912 247.975177 
C 220.417418 248.271683 220.819623 248.438282 221.238946 248.438282 
z
" style="fill:#add8e6;stroke:#000000;"/>
    <path clip-path="url(#p7a03a37231)" d="M 285.049926 115.910043 
C 285.642939 115.910043 286.211742 115.674437 286.631065 115.255114 
C 287.050388 114.835791 287.285994 114.266988 287.285994 113.673975 
C 287.285994 113.080963 287.050388 112.51216 286.631065 112.092837 
C 286.211742 111.673514 285.642939 111.437907 285.049926 111.437907 
C 284.456914 111.437907 283.888111 111.673514 283.468788 112.092837 
C 283.049465 112.51216 282.813858 113.080963 282.813858 113.673975 
C 282.813858 114.266988 283.049465 114.835791 283.468788 115.255114 
C 283.888111 115.674437 284.456914 115.910043 285.049926 115.910043 
z
" style="fill:#add8e6;stroke:#000000;"/>
    <path clip-path="url(#p7a03a37231)" d="M 288.527111 236.174333 
C 288.946434 236.174333 289.348639 236.007735 289.645145 235.711229 
C 289.941651 235.414723 290.10825 235.012518 290.10825 234.593195 
C 290.10825 234.173872 289.941651 233.771667 289.645145 233.475161 
C 289.348639 233.178655 288.946434 233.012056 288.527111 233.012056 
C 288.107788 233.012056 287.705583 233.178655 287.409077 233.475161 
C 287.112571 233.771667 286.945972 234.173872 286.945972 234.593195 
C 286.945972 235.012518 287.112571 235.414723 287.409077 235.711229 
C 287.705583 236.007735 288.107788 236.174333 288.527111 236.174333 
z
" style="fill:#add8e6;stroke:#000000;"/>
    <path clip-path="url(#p7a03a37231)" d="M 189.959261 47.612155 
C 190.552273 47.612155 191.121077 47.376549 191.540399 46.957226 
C 191.959722 46.537903 192.195329 45.969099 192.195329 45.376087 
C 192.195329 44.783075 191.959722 44.214271 191.540399 43.794948 
C 191.121077 43.375625 190.552273 43.140019 189.959261 43.140019 
C 189.366249 43.140019 188.797445 43.375625 188.378122 43.794948 
C 187.958799 44.214271 187.723193 44.783075 187.723193 45.376087 
C 187.723193 45.969099 187.958799 46.537903 188.378122 46.957226 
C 188.797445 47.376549 189.366249 47.612155 189.959261 47.612155 
z
" style="fill:#add8e6;stroke:#000000;"/>
    <path clip-path="url(#p7a03a37231)" d="M 366.807815 129.470225 
C 367.227138 129.470225 367.629343 129.303627 367.925849 129.00712 
C 368.222355 128.710614 368.388954 128.308409 368.388954 127.889086 
C 368.388954 127.469764 368.222355 127.067559 367.925849 126.771052 
C 367.629343 126.474546 367.227138 126.307948 366.807815 126.307948 
C 366.388492 126.307948 365.986287 126.474546 365.689781 126.771052 
C 365.393275 127.067559 365.226676 127.469764 365.226676 127.889086 
C 365.226676 128.308409 365.393275 128.710614 365.689781 129.00712 
C 365.986287 129.303627 366.388492 129.470225 366.807815 129.470225 
z
" style="fill:#add8e6;stroke:#000000;"/>
    <path clip-path="url(#p7a03a37231)" d="M 62.806401 127.08147 
C 63.225724 127.08147 63.627929 126.914871 63.924435 126.618365 
C 64.220941 126.321859 64.387539 125.919654 64.387539 125.500331 
C 64.387539 125.081008 64.220941 124.678803 63.924435 124.382297 
C 63.627929 124.085791 63.225724 123.919192 62.806401 123.919192 
C 62.387078 123.919192 61.984873 124.085791 61.688367 124.382297 
C 61.391861 124.678803 61.225262 125.081008 61.225262 125.500331 
C 61.225262 125.919654 61.391861 126.321859 61.688367 126.618365 
C 61.984873 126.914871 62.387078 127.08147 62.806401 127.08147 
z
" style="fill:#add8e6;stroke:#000000;"/>
    <path clip-path="url(#p7a03a37231)" d="M 267.249607 242.96901 
C 267.66893 242.96901 268.071135 242.802412 268.367641 242.505906 
C 268.664147 242.2094 268.830746 241.807195 268.830746 241.387872 
C 268.830746 240.968549 268.664147 240.566344 268.367641 240.269838 
C 268.071135 239.973332 267.66893 239.806733 267.249607 239.806733 
C 266.830284 239.806733 266.428079 239.973332 266.131573 240.269838 
C 265.835067 240.566344 265.668468 240.968549 265.668468 241.387872 
C 265.668468 241.807195 265.835067 242.2094 266.131573 242.505906 
C 266.428079 242.802412 266.830284 242.96901 267.249607 242.96901 
z
" style="fill:#add8e6;stroke:#000000;"/>
    <path clip-path="url(#p7a03a37231)" d="M 148.824666 238.967415 
C 149.243989 238.967415 149.646193 238.800816 149.9427 238.50431 
C 150.239206 238.207804 150.405804 237.805599 150.405804 237.386276 
C 150.405804 236.966953 150.239206 236.564748 149.9427 236.268242 
C 149.646193 235.971736 149.243989 235.805137 148.824666 235.805137 
C 148.405343 235.805137 148.003138 235.971736 147.706632 236.268242 
C 147.410126 236.564748 147.243527 236.966953 147.243527 237.386276 
C 147.243527 237.805599 147.410126 238.207804 147.706632 238.50431 
C 148.003138 238.800816 148.405343 238.967415 148.824666 238.967415 
z
" style="fill:#add8e6;stroke:#000000;"/>
    <path clip-path="url(#p7a03a37231)" d="M 244.415839 246.681378 
C 244.835162 246.681378 245.237367 246.51478 245.533873 246.218274 
C 245.830379 245.921768 245.996977 245.519563 245.996977 245.10024 
C 245.996977 244.680917 245.830379 244.278712 245.533873 243.982206 
C 245.237367 243.6857 244.835162 243.519101 244.415839 243.519101 
C 243.996516 243.519101 243.594311 243.6857 243.297805 243.982206 
C 243.001299 244.278712 242.8347 244.680917 242.8347 245.10024 
C 242.8347 245.519563 243.001299 245.921768 243.297805 246.218274 
C 243.594311 246.51478 243.996516 246.681378 244.415839 246.681378 
z
" style="fill:#add8e6;stroke:#000000;"/>
    <path clip-path="url(#p7a03a37231)" d="M 68.051503 177.663251 
C 68.470826 177.663251 68.873031 177.496653 69.169537 177.200147 
C 69.466043 176.90364 69.632642 176.501435 69.632642 176.082113 
C 69.632642 175.66279 69.466043 175.260585 69.169537 174.964079 
C 68.873031 174.667572 68.470826 174.500974 68.051503 174.500974 
C 67.63218 174.500974 67.229975 174.667572 66.933469 174.964079 
C 66.636963 175.260585 66.470364 175.66279 66.470364 176.082113 
C 66.470364 176.501435 66.636963 176.90364 66.933469 177.200147 
C 67.229975 177.496653 67.63218 177.663251 68.051503 177.663251 
z
" style="fill:#add8e6;stroke:#000000;"/>
    <path clip-path="url(#p7a03a37231)" d="M 229.595816 43.375457 
C 230.015139 43.375457 230.417344 43.208858 230.71385 42.912352 
C 231.010356 42.615846 231.176955 42.213641 231.176955 41.794318 
C 231.176955 41.374995 231.010356 40.97279 230.71385 40.676284 
C 230.417344 40.379778 230.015139 40.213179 229.595816 40.213179 
C 229.176493 40.213179 228.774288 40.379778 228.477782 40.676284 
C 228.181276 40.97279 228.014677 41.374995 228.014677 41.794318 
C 228.014677 42.213641 228.181276 42.615846 228.477782 42.912352 
C 228.774288 43.208858 229.176493 43.375457 229.595816 43.375457 
z
" style="fill:#add8e6;stroke:#000000;"/>
   </g>
  </g>
 </g>
 <defs>
  <clipPath id="p7a03a37231">
   <rect height="288.0" width="432.0" x="0.0" y="0.0"/>
  </clipPath>
 </defs>
</svg>
