<?xml version="1.0" encoding="utf-8" standalone="no"?>
<!DOCTYPE svg PUBLIC "-//W3C//DTD SVG 1.1//EN"
  "http://www.w3.org/Graphics/SVG/1.1/DTD/svg11.dtd">
<!-- Created with matplotlib (http://matplotlib.org/) -->
<svg height="288pt" version="1.1" viewBox="0 0 432 288" width="432pt" xmlns="http://www.w3.org/2000/svg" xmlns:xlink="http://www.w3.org/1999/xlink">
 <defs>
  <style type="text/css">
*{stroke-linecap:butt;stroke-linejoin:round;stroke-miterlimit:100000;}
  </style>
 </defs>
 <g id="figure_1">
  <g id="patch_1">
   <path d="M 0 288 
L 432 288 
L 432 0 
L 0 0 
L 0 288 
z
" style="fill:none;"/>
  </g>
  <g id="axes_1">
   <g id="LineCollection_1">
    <path clip-path="url(#pabf82f2bb5)" d="M 223.782203 138.16567 
L 283.428707 41.426335 
" style="fill:none;stroke:#eeeeee;stroke-width:6.0;"/>
    <path clip-path="url(#pabf82f2bb5)" d="M 223.782203 138.16567 
L 370.285714 103.199823 
" style="fill:none;stroke:#eeeeee;stroke-width:6.0;"/>
    <path clip-path="url(#pabf82f2bb5)" d="M 223.782203 138.16567 
L 61.714286 132.681519 
" style="fill:none;stroke:#eeeeee;stroke-width:6.0;"/>
    <path clip-path="url(#pabf82f2bb5)" d="M 223.782203 138.16567 
L 224.133491 246.857143 
" style="fill:none;stroke:#eeeeee;stroke-width:6.0;"/>
    <path clip-path="url(#pabf82f2bb5)" d="M 370.285714 103.199823 
L 283.428707 41.426335 
" style="fill:none;stroke:#eeeeee;stroke-width:6.0;"/>
   </g>
   <g id="PathCollection_1">
    <path clip-path="url(#pabf82f2bb5)" d="M 223.782203 187.155465 
C 236.774448 187.155465 249.236314 181.993591 258.423219 172.806686 
C 267.610124 163.619781 272.771998 151.157915 272.771998 138.16567 
C 272.771998 125.173424 267.610124 112.711558 258.423219 103.524654 
C 249.236314 94.337749 236.774448 89.175875 223.782203 89.175875 
C 210.789958 89.175875 198.328092 94.337749 189.141187 103.524654 
C 179.954282 112.711558 174.792408 125.173424 174.792408 138.16567 
C 174.792408 151.157915 179.954282 163.619781 189.141187 172.806686 
C 198.328092 181.993591 210.789958 187.155465 223.782203 187.155465 
z
" style="fill:#add8e6;stroke:#000000;"/>
    <path clip-path="url(#pabf82f2bb5)" d="M 370.285714 127.69472 
C 376.781837 127.69472 383.01277 125.113783 387.606222 120.520331 
C 392.199675 115.926879 394.780612 109.695946 394.780612 103.199823 
C 394.780612 96.7037 392.199675 90.472767 387.606222 85.879315 
C 383.01277 81.285862 376.781837 78.704926 370.285714 78.704926 
C 363.789592 78.704926 357.558659 81.285862 352.965206 85.879315 
C 348.371754 90.472767 345.790817 96.7037 345.790817 103.199823 
C 345.790817 109.695946 348.371754 115.926879 352.965206 120.520331 
C 357.558659 125.113783 363.789592 127.69472 370.285714 127.69472 
z
" style="fill:#add8e6;stroke:#000000;"/>
    <path clip-path="url(#pabf82f2bb5)" d="M 61.714286 144.928968 
C 64.962347 144.928968 68.077814 143.6385 70.37454 141.341773 
C 72.671266 139.045047 73.961734 135.929581 73.961734 132.681519 
C 73.961734 129.433458 72.671266 126.317992 70.37454 124.021265 
C 68.077814 121.724539 64.962347 120.434071 61.714286 120.434071 
C 58.466224 120.434071 55.350758 121.724539 53.054032 124.021265 
C 50.757305 126.317992 49.466837 129.433458 49.466837 132.681519 
C 49.466837 135.929581 50.757305 139.045047 53.054032 141.341773 
C 55.350758 143.6385 58.466224 144.928968 61.714286 144.928968 
z
" style="fill:#add8e6;stroke:#000000;"/>
    <path clip-path="url(#pabf82f2bb5)" d="M 224.133491 259.104592 
C 227.381553 259.104592 230.497019 257.814123 232.793745 255.517397 
C 235.090472 253.220671 236.38094 250.105204 236.38094 246.857143 
C 236.38094 243.609081 235.090472 240.493615 232.793745 238.196889 
C 230.497019 235.900163 227.381553 234.609694 224.133491 234.609694 
C 220.88543 234.609694 217.769963 235.900163 215.473237 238.196889 
C 213.176511 240.493615 211.886043 243.609081 211.886043 246.857143 
C 211.886043 250.105204 213.176511 253.220671 215.473237 255.517397 
C 217.769963 257.814123 220.88543 259.104592 224.133491 259.104592 
z
" style="fill:#add8e6;stroke:#000000;"/>
    <path clip-path="url(#pabf82f2bb5)" d="M 283.428707 65.921232 
C 289.92483 65.921232 296.155763 63.340295 300.749215 58.746843 
C 305.342668 54.15339 307.923605 47.922458 307.923605 41.426335 
C 307.923605 34.930212 305.342668 28.699279 300.749215 24.105827 
C 296.155763 19.512374 289.92483 16.931437 283.428707 16.931437 
C 276.932584 16.931437 270.701651 19.512374 266.108199 24.105827 
C 261.514747 28.699279 258.93381 34.930212 258.93381 41.426335 
C 258.93381 47.922458 261.514747 54.15339 266.108199 58.746843 
C 270.701651 63.340295 276.932584 65.921232 283.428707 65.921232 
z
" style="fill:#add8e6;stroke:#000000;"/>
   </g>
   <g id="text_1">
    <g clip-path="url(#pabf82f2bb5)">
     <!-- 4 -->
     <defs>
      <path d="M 37.796875 64.3125 
L 12.890625 25.390625 
L 37.796875 25.390625 
z
M 35.203125 72.90625 
L 47.609375 72.90625 
L 47.609375 25.390625 
L 58.015625 25.390625 
L 58.015625 17.1875 
L 47.609375 17.1875 
L 47.609375 0 
L 37.796875 0 
L 37.796875 17.1875 
L 4.890625 17.1875 
L 4.890625 26.703125 
z
" id="BitstreamVeraSans-Roman-34"/>
     </defs>
     <g transform="translate(218.692202966 142.580669725)scale(0.16 -0.16)">
      <use xlink:href="#BitstreamVeraSans-Roman-34"/>
     </g>
    </g>
   </g>
   <g id="text_2">
    <g clip-path="url(#pabf82f2bb5)">
     <!-- 2 -->
     <defs>
      <path d="M 19.1875 8.296875 
L 53.609375 8.296875 
L 53.609375 0 
L 7.328125 0 
L 7.328125 8.296875 
Q 12.9375 14.109375 22.625 23.890625 
Q 32.328125 33.6875 34.8125 36.53125 
Q 39.546875 41.84375 41.421875 45.53125 
Q 43.3125 49.21875 43.3125 52.78125 
Q 43.3125 58.59375 39.234375 62.25 
Q 35.15625 65.921875 28.609375 65.921875 
Q 23.96875 65.921875 18.8125 64.3125 
Q 13.671875 62.703125 7.8125 59.421875 
L 7.8125 69.390625 
Q 13.765625 71.78125 18.9375 73 
Q 24.125 74.21875 28.421875 74.21875 
Q 39.75 74.21875 46.484375 68.546875 
Q 53.21875 62.890625 53.21875 53.421875 
Q 53.21875 48.921875 51.53125 44.890625 
Q 49.859375 40.875 45.40625 35.40625 
Q 44.1875 33.984375 37.640625 27.21875 
Q 31.109375 20.453125 19.1875 8.296875 
" id="BitstreamVeraSans-Roman-32"/>
     </defs>
     <g transform="translate(365.195714286 107.614822963)scale(0.16 -0.16)">
      <use xlink:href="#BitstreamVeraSans-Roman-32"/>
     </g>
    </g>
   </g>
   <g id="text_3">
    <g clip-path="url(#pabf82f2bb5)">
     <!-- 1 -->
     <defs>
      <path d="M 12.40625 8.296875 
L 28.515625 8.296875 
L 28.515625 63.921875 
L 10.984375 60.40625 
L 10.984375 69.390625 
L 28.421875 72.90625 
L 38.28125 72.90625 
L 38.28125 8.296875 
L 54.390625 8.296875 
L 54.390625 0 
L 12.40625 0 
z
" id="BitstreamVeraSans-Roman-31"/>
     </defs>
     <g transform="translate(219.043491275 251.272142857)scale(0.16 -0.16)">
      <use xlink:href="#BitstreamVeraSans-Roman-31"/>
     </g>
    </g>
   </g>
   <g id="text_4">
    <g clip-path="url(#pabf82f2bb5)">
     <!-- 1 -->
     <g transform="translate(56.6242857143 137.09651946)scale(0.16 -0.16)">
      <use xlink:href="#BitstreamVeraSans-Roman-31"/>
     </g>
    </g>
   </g>
   <g id="text_5">
    <g clip-path="url(#pabf82f2bb5)">
     <!-- 2 -->
     <g transform="translate(278.33870713 45.8413348566)scale(0.16 -0.16)">
      <use xlink:href="#BitstreamVeraSans-Roman-32"/>
     </g>
    </g>
   </g>
  </g>
 </g>
 <defs>
  <clipPath id="pabf82f2bb5">
   <rect height="288.0" width="432.0" x="0.0" y="0.0"/>
  </clipPath>
 </defs>
</svg>
